<svg width="100" height="100" viewBox="0 0 100 100" fill="none" xmlns="http://www.w3.org/2000/svg">
<g clip-path="url(#clip0)">
<path d="M19.2456 25.4399V45.1585C19.2456 47.7663 21.3674 49.8881 23.9754 49.8881H76.0246C78.6326 49.8881 80.7544 47.7663 80.7544 45.1585V25.4399C80.7544 22.8318 78.6326 20.7101 76.0246 20.7101H73.3345C72.5256 20.7101 71.8699 21.3658 71.8699 22.1747C71.8699 22.9836 72.5256 23.6394 73.3345 23.6394H76.0246C77.0174 23.6394 77.8251 24.4471 77.8251 25.4399V45.1585C77.8251 46.1511 77.0174 46.9588 76.0246 46.9588H23.9754C22.9826 46.9588 22.1749 46.1511 22.1749 45.1585V25.4399C22.1749 24.4471 22.9826 23.6394 23.9754 23.6394H66.4995C67.3084 23.6394 67.9641 22.9836 67.9641 22.1747C67.9641 21.3658 67.3084 20.7101 66.4995 20.7101H23.9754C21.3674 20.7101 19.2456 22.8318 19.2456 25.4399Z" fill="#F5F5F5"/>
<path d="M89.2888 93.4072L82.072 80.9073C85.7683 79.654 88.4369 76.1535 88.4369 72.039V64.3976C88.4369 64.397 88.4369 64.3965 88.4369 64.3957V15.8695C88.4369 7.15351 81.3865 0 72.5674 0H27.4324C18.682 0 11.5631 7.11895 11.5631 15.8695V49.8375C11.5631 50.6464 12.2188 51.3022 13.0277 51.3022C13.8366 51.3022 14.4924 50.6464 14.4924 49.8375V15.8695C14.4924 8.73435 20.2972 2.92929 27.4324 2.92929H72.5674C79.7227 2.92929 85.5074 8.73045 85.5074 15.8695V62.933H80.0691C79.3827 59.3729 76.245 56.6749 72.4875 56.6749H27.2408C27.2408 56.6749 27.2408 56.6749 27.2406 56.6749C27.2404 56.6749 27.2404 56.6749 27.2402 56.6749C23.4827 56.6749 20.3451 59.3729 19.6586 62.933H14.4924V56.6725C14.4924 55.8637 13.8366 55.2079 13.0277 55.2079C12.2188 55.2079 11.5631 55.8637 11.5631 56.6725V64.3957V64.3976C11.5631 72.909 11.5254 72.5778 11.6925 73.5815C12.2563 76.9824 14.6871 79.8158 17.927 80.9091L10.7112 93.4072C9.49987 95.5053 10.2213 98.1979 12.3194 99.4093C14.4193 100.622 17.1055 99.9076 18.3217 97.8011L20.4029 94.1965H79.5973L81.6785 97.8011C82.89 99.8996 85.5721 100.627 87.6806 99.4093C89.7787 98.1979 90.5001 95.5053 89.2888 93.4072ZM77.2808 64.3976C77.2808 67.04 75.1311 69.1907 72.487 69.1909C69.8442 69.1907 67.6941 67.0404 67.6941 64.3976C67.6941 61.7544 69.8444 59.6042 72.4874 59.6042C75.1305 59.6042 77.2808 61.7544 77.2808 64.3976ZM66.4364 59.6042C64.208 62.4122 64.2092 66.3853 66.4364 69.1909H33.2913C35.5174 66.3866 35.5188 62.4094 33.2913 59.6042H66.4364ZM27.2404 59.6042C29.8658 59.6042 32.0339 61.739 32.0339 64.3976C32.0339 67.0393 29.8819 69.1909 27.2404 69.1909C24.5972 69.1909 22.4469 67.0406 22.4469 64.3976C22.4469 61.7544 24.5972 59.6042 27.2404 59.6042ZM19.6571 65.8623C20.3517 69.4585 23.5216 72.1165 27.2334 72.12C27.2357 72.12 27.2381 72.1202 27.2404 72.1202H27.2408H27.2414H72.4874C76.2269 72.1202 79.3811 69.4333 80.0709 65.8623H85.5076V72.039C85.5076 75.5971 82.6082 78.4734 79.0734 78.4734H73.0564C70.736 78.4734 25.4526 78.4734 20.9268 78.4734C17.6339 78.4734 14.8968 75.9837 14.5343 72.7639C14.4779 72.2591 14.4924 72.6053 14.4924 65.8625H19.6571V65.8623ZM15.7848 96.3366C15.3801 97.0375 14.4851 97.2773 13.7841 96.8727C13.0832 96.4681 12.8432 95.5731 13.248 94.872L21.0245 81.4027H24.4068L15.7848 96.3366ZM22.0941 91.2672L23.7852 88.3379H76.2148L77.906 91.2672H22.0941ZM25.4764 85.4086L27.7892 81.4027H72.2106L74.5234 85.4086H25.4764ZM86.2157 96.8725C85.5166 97.2763 84.6208 97.0391 84.215 96.3364L75.593 81.4025H78.9753L86.7518 94.8718C87.1566 95.5727 86.917 96.4679 86.2157 96.8725Z" fill="#F5F5F5"/>
</g>
<defs>
<clipPath id="clip0">
<rect width="100" height="100" fill="white"/>
</clipPath>
</defs>
</svg>
