
<svg width="43" height="33" viewBox="0 0 43 33" fill="none" xmlns="http://www.w3.org/2000/svg">
    <path d="M6.256 21.8V33H4.016V25.272L1.888 27.368L0.336 25.752L4.368 21.8H6.256ZM8.585 24.872C8.585 24.4027 8.67567 23.9813 8.857 23.608C9.03833 23.224 9.289 22.8987 9.609 22.632C9.93967 22.3653 10.329 22.1627 10.777 22.024C11.225 21.8747 11.7157 21.8 12.249 21.8C12.7823 21.8 13.273 21.8747 13.721 22.024C14.1797 22.1627 14.569 22.3653 14.889 22.632C15.2197 22.8987 15.4757 23.224 15.657 23.608C15.8383 23.9813 15.929 24.3973 15.929 24.856C15.929 25.3787 15.801 25.864 15.545 26.312C15.2997 26.76 14.921 27.1227 14.409 27.4C14.921 27.6773 15.2997 28.04 15.545 28.488C15.801 28.936 15.929 29.416 15.929 29.928C15.929 30.3973 15.8383 30.824 15.657 31.208C15.4757 31.5813 15.2197 31.9013 14.889 32.168C14.569 32.4347 14.1797 32.6427 13.721 32.792C13.273 32.9307 12.7823 33 12.249 33C11.7157 33 11.225 32.9307 10.777 32.792C10.329 32.6427 9.93967 32.4347 9.609 32.168C9.289 31.9013 9.03833 31.5813 8.857 31.208C8.67567 30.824 8.585 30.3973 8.585 29.928C8.585 29.3947 8.70767 28.904 8.953 28.456C9.19833 28.008 9.57167 27.656 10.073 27.4C9.58233 27.144 9.209 26.7973 8.953 26.36C8.70767 25.912 8.585 25.416 8.585 24.872ZM13.689 25.144C13.689 24.8133 13.561 24.5467 13.305 24.344C13.049 24.1413 12.7023 24.04 12.265 24.04C11.817 24.04 11.465 24.1413 11.209 24.344C10.953 24.5467 10.825 24.8133 10.825 25.144C10.825 25.496 10.9583 25.7733 11.225 25.976C11.5023 26.1787 11.849 26.28 12.265 26.28C12.6703 26.28 13.0063 26.1787 13.273 25.976C13.5503 25.7733 13.689 25.496 13.689 25.144ZM13.689 29.656C13.689 29.2933 13.5503 29.016 13.273 28.824C13.0063 28.6213 12.6703 28.52 12.265 28.52C11.849 28.52 11.5023 28.6213 11.225 28.824C10.9583 29.016 10.825 29.2933 10.825 29.656C10.825 29.9867 10.953 30.2533 11.209 30.456C11.465 30.6587 11.817 30.76 12.265 30.76C12.7023 30.76 13.049 30.6587 13.305 30.456C13.561 30.2533 13.689 29.9867 13.689 29.656ZM18.0978 25.24C18.3858 24.952 18.7484 24.808 19.1858 24.808C19.6231 24.808 19.9858 24.952 20.2738 25.24C20.5724 25.528 20.7218 25.8907 20.7218 26.328C20.7218 26.7653 20.5724 27.128 20.2738 27.416C19.9858 27.704 19.6231 27.848 19.1858 27.848C18.7484 27.848 18.3858 27.704 18.0978 27.416C17.8204 27.128 17.6818 26.7653 17.6818 26.328C17.6818 25.8907 17.8204 25.528 18.0978 25.24ZM18.0978 30.392C18.3858 30.104 18.7484 29.96 19.1858 29.96C19.6231 29.96 19.9858 30.104 20.2738 30.392C20.5724 30.68 20.7218 31.0427 20.7218 31.48C20.7218 31.9173 20.5724 32.28 20.2738 32.568C19.9858 32.856 19.6231 33 19.1858 33C18.7484 33 18.3858 32.856 18.0978 32.568C17.8204 32.28 17.6818 31.9173 17.6818 31.48C17.6818 31.0427 17.8204 30.68 18.0978 30.392ZM22.3089 23.608C22.4582 23.3627 22.6502 23.1333 22.8849 22.92C23.1195 22.696 23.3915 22.504 23.7009 22.344C24.0209 22.1733 24.3675 22.04 24.7409 21.944C25.1249 21.848 25.5355 21.8 25.9729 21.8C26.5702 21.8 27.1035 21.88 27.5729 22.04C28.0422 22.1893 28.4369 22.4027 28.7569 22.68C29.0875 22.9573 29.3382 23.288 29.5089 23.672C29.6795 24.0453 29.7649 24.456 29.7649 24.904C29.7649 25.2453 29.7169 25.5547 29.6209 25.832C29.5355 26.0987 29.4182 26.3387 29.2689 26.552C29.1302 26.7547 28.9649 26.9307 28.7729 27.08C28.5809 27.2187 28.3889 27.3253 28.1969 27.4C28.3995 27.4853 28.5915 27.5973 28.7729 27.736C28.9649 27.8747 29.1302 28.0507 29.2689 28.264C29.4182 28.4667 29.5355 28.7067 29.6209 28.984C29.7169 29.2507 29.7649 29.5547 29.7649 29.896C29.7649 30.3547 29.6795 30.776 29.5089 31.16C29.3382 31.544 29.0875 31.8747 28.7569 32.152C28.4369 32.4187 28.0422 32.6267 27.5729 32.776C27.1035 32.9253 26.5702 33 25.9729 33C25.0875 33 24.3249 32.824 23.6849 32.472C23.0555 32.1093 22.5915 31.6667 22.2929 31.144L23.8289 29.48C24.0742 29.9173 24.3889 30.2427 24.7729 30.456C25.1675 30.6587 25.5729 30.76 25.9889 30.76C26.4689 30.76 26.8422 30.664 27.1089 30.472C27.3862 30.2693 27.5249 29.9867 27.5249 29.624C27.5249 29.2827 27.3915 29.0107 27.1249 28.808C26.8689 28.6053 26.5062 28.4987 26.0369 28.488H25.1889V26.296H26.0369C26.5062 26.2853 26.8689 26.1787 27.1249 25.976C27.3915 25.7733 27.5249 25.5013 27.5249 25.16C27.5249 24.808 27.3862 24.536 27.1089 24.344C26.8315 24.1413 26.4582 24.04 25.9889 24.04C25.5835 24.04 25.1835 24.1467 24.7889 24.36C24.4049 24.5733 24.0849 24.888 23.8289 25.304L22.3089 23.608ZM31.7956 29.688C31.5183 28.9947 31.3796 28.232 31.3796 27.4C31.3796 26.568 31.5183 25.8107 31.7956 25.128C32.073 24.4347 32.4516 23.8427 32.9316 23.352C33.4116 22.8613 33.977 22.4827 34.6276 22.216C35.2783 21.9387 35.977 21.8 36.7236 21.8C37.4703 21.8 38.169 21.9387 38.8196 22.216C39.4703 22.4827 40.0356 22.8613 40.5156 23.352C40.9956 23.8427 41.3743 24.4347 41.6516 25.128C41.929 25.8107 42.0676 26.568 42.0676 27.4C42.0676 28.232 41.929 28.9947 41.6516 29.688C41.3743 30.3707 40.9956 30.9573 40.5156 31.448C40.0356 31.9387 39.4703 32.3227 38.8196 32.6C38.169 32.8667 37.4703 33 36.7236 33C35.977 33 35.2783 32.8667 34.6276 32.6C33.977 32.3227 33.4116 31.9387 32.9316 31.448C32.4516 30.9573 32.073 30.3707 31.7956 29.688ZM39.5876 28.792C39.7476 28.376 39.8276 27.912 39.8276 27.4C39.8276 26.888 39.7476 26.424 39.5876 26.008C39.4383 25.592 39.225 25.24 38.9476 24.952C38.6703 24.6533 38.3396 24.4293 37.9556 24.28C37.5823 24.12 37.1716 24.04 36.7236 24.04C36.2756 24.04 35.8596 24.12 35.4756 24.28C35.0916 24.4293 34.761 24.6533 34.4836 24.952C34.217 25.24 34.0036 25.592 33.8436 26.008C33.6943 26.424 33.6196 26.888 33.6196 27.4C33.6196 27.912 33.6943 28.376 33.8436 28.792C34.0036 29.208 34.217 29.5653 34.4836 29.864C34.761 30.152 35.0916 30.376 35.4756 30.536C35.8596 30.6853 36.2756 30.76 36.7236 30.76C37.1716 30.76 37.5823 30.6853 37.9556 30.536C38.3396 30.376 38.6703 30.152 38.9476 29.864C39.225 29.5653 39.4383 29.208 39.5876 28.792ZM35.7956 28.328C35.5503 28.072 35.4276 27.7627 35.4276 27.4C35.4276 27.0373 35.5503 26.7333 35.7956 26.488C36.0516 26.232 36.361 26.104 36.7236 26.104C37.0863 26.104 37.3956 26.232 37.6516 26.488C37.9076 26.7333 38.0356 27.0373 38.0356 27.4C38.0356 27.7627 37.9076 28.072 37.6516 28.328C37.3956 28.5733 37.0863 28.696 36.7236 28.696C36.361 28.696 36.0516 28.5733 35.7956 28.328Z" fill="#2D3039" />
    <path d="M10.512 12L9.52 9.872H2.736L1.744 12H0.16L5.376 0.799999H6.88L12.096 12H10.512ZM3.392 8.432H8.864L6.128 2.544L3.392 8.432ZM17.0174 11.888C16.5374 12.016 16.0787 12.08 15.6414 12.08C14.8947 12.08 14.34 11.904 13.9774 11.552C13.6147 11.1893 13.4334 10.592 13.4334 9.76V5.2H11.8494V4H13.4334V1.856H14.8094V4H17.0014V5.2H14.8094V9.84C14.8094 10.48 15.1134 10.8 15.7214 10.8C16.1267 10.8 16.5587 10.7573 17.0174 10.672V11.888Z" fill="#747780" />
</svg>