
<svg width="139" height="37" viewBox="0 0 139 37" fill="none" xmlns="http://www.w3.org/2000/svg">
    <path d="M4.496 33L0.16 21.8H2.56L5.584 29.608L8.816 21.8H11.024L14.256 29.608L17.28 21.8H19.68L15.344 33H13.248L9.92 25.016L6.592 33H4.496ZM18.8539 29C18.8539 28.4133 18.9499 27.864 19.1419 27.352C19.3339 26.84 19.6059 26.3973 19.9579 26.024C20.3099 25.64 20.7365 25.3413 21.2379 25.128C21.7499 24.9147 22.3205 24.808 22.9499 24.808C23.5579 24.808 24.1072 24.9093 24.5979 25.112C25.0885 25.3147 25.5045 25.6027 25.8459 25.976C26.1872 26.3387 26.4485 26.7867 26.6299 27.32C26.8112 27.8427 26.9019 28.424 26.9019 29.064V29.64H21.0139L21.0299 29.672C21.0939 29.9387 21.1952 30.168 21.3339 30.36C21.4832 30.552 21.6539 30.712 21.8459 30.84C22.0379 30.968 22.2459 31.064 22.4699 31.128C22.7045 31.1813 22.9392 31.208 23.1739 31.208C23.6539 31.208 24.0805 31.1333 24.4539 30.984C24.8379 30.8347 25.1685 30.6373 25.4459 30.392L26.3259 32.136C25.9952 32.4133 25.5739 32.6587 25.0619 32.872C24.5499 33.0853 23.9099 33.192 23.1419 33.192C22.4699 33.192 21.8672 33.0853 21.3339 32.872C20.8005 32.6587 20.3472 32.3653 19.9739 31.992C19.6112 31.6187 19.3339 31.176 19.1419 30.664C18.9499 30.152 18.8539 29.5973 18.8539 29ZM24.5979 28.104C24.5445 27.6667 24.3739 27.3093 24.0859 27.032C23.7979 26.744 23.3979 26.6 22.8859 26.6C22.3739 26.6 21.9579 26.7333 21.6379 27C21.3179 27.256 21.1045 27.624 20.9979 28.104H24.5979ZM27.9391 27.352C27.9391 26.5413 28.2378 25.9173 28.8351 25.48C29.4325 25.032 30.2591 24.808 31.3151 24.808C32.0511 24.808 32.6751 24.9147 33.1871 25.128C33.7098 25.3413 34.1471 25.6293 34.4991 25.992L33.3151 27.528C33.0911 27.2827 32.7818 27.0853 32.3871 26.936C31.9925 26.7867 31.5818 26.712 31.1551 26.712C30.4725 26.712 30.1311 26.8987 30.1311 27.272C30.1311 27.368 30.1578 27.4533 30.2111 27.528C30.2751 27.592 30.3765 27.656 30.5151 27.72C30.6645 27.7733 30.8618 27.8267 31.1071 27.88L31.9871 28.072C32.3391 28.1467 32.6698 28.2427 32.9791 28.36C33.2885 28.4667 33.5551 28.616 33.7791 28.808C34.0138 29 34.2005 29.24 34.3391 29.528C34.4778 29.816 34.5471 30.168 34.5471 30.584C34.5471 31.5013 34.2378 32.168 33.6191 32.584C33.0005 32.9893 32.1578 33.192 31.0911 33.192C30.3231 33.192 29.6245 33.0853 28.9951 32.872C28.3765 32.648 27.8911 32.312 27.5391 31.864L28.7711 30.264C29.0378 30.584 29.3845 30.84 29.8111 31.032C30.2378 31.2133 30.7338 31.304 31.2991 31.304C31.5978 31.304 31.8485 31.2613 32.0511 31.176C32.2645 31.08 32.3711 30.92 32.3711 30.696C32.3711 30.5893 32.3391 30.4987 32.2751 30.424C32.2218 30.3493 32.1258 30.2853 31.9871 30.232C31.8485 30.1787 31.6671 30.1253 31.4431 30.072L30.5951 29.88C30.2965 29.816 29.9871 29.7307 29.6671 29.624C29.3578 29.5173 29.0751 29.368 28.8191 29.176C28.5631 28.984 28.3498 28.744 28.1791 28.456C28.0191 28.1573 27.9391 27.7893 27.9391 27.352ZM40.5718 32.84C40.2731 32.9147 39.9744 32.9733 39.6758 33.016C39.3878 33.0587 39.1104 33.08 38.8438 33.08C38.0971 33.08 37.5158 32.888 37.0998 32.504C36.6944 32.12 36.4918 31.4693 36.4918 30.552V26.776H35.0358V25H36.4918V22.856H38.6038V25H40.6358V26.776H38.6038V30.248C38.6038 30.504 38.6678 30.6907 38.7958 30.808C38.9238 30.9147 39.1264 30.968 39.4038 30.968C39.5638 30.968 39.7238 30.9627 39.8838 30.952C40.0544 30.9307 40.2838 30.8933 40.5718 30.84V32.84ZM51.6395 21.8C52.1622 21.8 52.6315 21.88 53.0475 22.04C53.4635 22.2 53.8155 22.4187 54.1035 22.696C54.3915 22.9733 54.6102 23.3093 54.7595 23.704C54.9088 24.088 54.9835 24.504 54.9835 24.952C54.9835 25.5387 54.8555 26.04 54.5995 26.456C54.3542 26.872 54.0182 27.1867 53.5915 27.4C54.0288 27.6133 54.3702 27.9333 54.6155 28.36C54.8608 28.776 54.9835 29.272 54.9835 29.848C54.9835 30.296 54.9088 30.7173 54.7595 31.112C54.6102 31.496 54.3915 31.8267 54.1035 32.104C53.8155 32.3813 53.4635 32.6 53.0475 32.76C52.6315 32.92 52.1622 33 51.6395 33H46.8715V21.8H51.6395ZM52.7435 25.128C52.7435 24.808 52.6422 24.5467 52.4395 24.344C52.2368 24.1413 51.9542 24.04 51.5915 24.04H49.1115V26.28H51.5915C51.9328 26.28 52.2102 26.1733 52.4235 25.96C52.6368 25.7467 52.7435 25.4693 52.7435 25.128ZM52.7435 29.672C52.7435 29.32 52.6368 29.0427 52.4235 28.84C52.2102 28.6267 51.9328 28.52 51.5915 28.52H49.1115V30.76H51.5915C51.9542 30.76 52.2368 30.664 52.4395 30.472C52.6422 30.2693 52.7435 30.0027 52.7435 29.672ZM58.6788 26.312C58.8921 25.8427 59.1801 25.4747 59.5428 25.208C59.9161 24.9413 60.3854 24.808 60.9508 24.808C61.1001 24.808 61.2334 24.8187 61.3508 24.84C61.4788 24.8613 61.6068 24.888 61.7348 24.92V27.192C61.5854 27.1387 61.4308 27.1067 61.2708 27.096C61.1108 27.0747 60.9454 27.064 60.7748 27.064C60.0708 27.064 59.5588 27.2613 59.2388 27.656C58.9188 28.04 58.7588 28.616 58.7588 29.384V33H56.6468V25H58.6788V26.312ZM62.0258 29C62.0258 28.3813 62.1324 27.816 62.3458 27.304C62.5698 26.7813 62.8738 26.3387 63.2578 25.976C63.6418 25.6027 64.0951 25.3147 64.6178 25.112C65.1404 24.9093 65.7111 24.808 66.3298 24.808C66.9484 24.808 67.5191 24.9093 68.0418 25.112C68.5644 25.3147 69.0178 25.6027 69.4018 25.976C69.7858 26.3387 70.0844 26.7813 70.2978 27.304C70.5218 27.816 70.6337 28.3813 70.6337 29C70.6337 29.6293 70.5218 30.2 70.2978 30.712C70.0844 31.224 69.7858 31.6667 69.4018 32.04C69.0178 32.4027 68.5644 32.6853 68.0418 32.888C67.5191 33.0907 66.9484 33.192 66.3298 33.192C65.7111 33.192 65.1404 33.0907 64.6178 32.888C64.0951 32.6853 63.6418 32.4027 63.2578 32.04C62.8738 31.6667 62.5698 31.224 62.3458 30.712C62.1324 30.2 62.0258 29.6293 62.0258 29ZM68.2978 29.88C68.4044 29.6133 68.4578 29.32 68.4578 29C68.4578 28.68 68.4044 28.392 68.2978 28.136C68.1911 27.8693 68.0418 27.6453 67.8498 27.464C67.6578 27.272 67.4284 27.128 67.1618 27.032C66.9058 26.9253 66.6284 26.872 66.3298 26.872C66.0311 26.872 65.7484 26.9253 65.4818 27.032C65.2258 27.128 65.0018 27.272 64.8098 27.464C64.6178 27.6453 64.4684 27.8693 64.3618 28.136C64.2551 28.392 64.2018 28.68 64.2018 29C64.2018 29.32 64.2551 29.6133 64.3618 29.88C64.4684 30.136 64.6178 30.36 64.8098 30.552C65.0018 30.7333 65.2258 30.8773 65.4818 30.984C65.7484 31.08 66.0311 31.128 66.3298 31.128C66.6284 31.128 66.9058 31.08 67.1618 30.984C67.4284 30.8773 67.6578 30.7333 67.8498 30.552C68.0418 30.36 68.1911 30.136 68.2978 29.88ZM79.0145 26.296C79.2598 25.8587 79.6012 25.5013 80.0385 25.224C80.4758 24.9467 81.0305 24.808 81.7025 24.808C82.6412 24.808 83.3772 25.1013 83.9105 25.688C84.4545 26.2747 84.7265 27.0907 84.7265 28.136V33H82.5985V28.568C82.5985 27.416 82.1185 26.84 81.1585 26.84C80.8385 26.84 80.5665 26.8987 80.3425 27.016C80.1185 27.1333 79.9372 27.2987 79.7985 27.512C79.6598 27.7147 79.5585 27.96 79.4945 28.248C79.4305 28.5253 79.3985 28.8347 79.3985 29.176V33H77.2865V28.568C77.2865 27.416 76.8012 26.84 75.8305 26.84C75.5105 26.84 75.2385 26.8987 75.0145 27.016C74.8012 27.1333 74.6252 27.2987 74.4865 27.512C74.3478 27.7147 74.2465 27.96 74.1825 28.248C74.1292 28.5253 74.1025 28.8347 74.1025 29.176V33H71.9905V25H74.0385V26.168C74.2838 25.784 74.6038 25.464 74.9985 25.208C75.3932 24.9413 75.9052 24.808 76.5345 24.808C77.7292 24.808 78.5558 25.304 79.0145 26.296ZM90.7595 31.144C91.0582 31.144 91.3355 31.096 91.5915 31C91.8475 30.8933 92.0662 30.7493 92.2475 30.568C92.4395 30.376 92.5888 30.1467 92.6955 29.88C92.8022 29.6133 92.8555 29.32 92.8555 29C92.8555 28.68 92.8022 28.3867 92.6955 28.12C92.5888 27.8533 92.4395 27.6293 92.2475 27.448C92.0662 27.256 91.8475 27.112 91.5915 27.016C91.3355 26.9093 91.0582 26.856 90.7595 26.856C90.1622 26.856 89.6608 27.048 89.2555 27.432C88.8608 27.816 88.6635 28.3387 88.6635 29C88.6635 29.672 88.8608 30.2 89.2555 30.584C89.6608 30.9573 90.1622 31.144 90.7595 31.144ZM86.6155 36.2V25H88.7275V26.12C89.0155 25.7147 89.3835 25.3947 89.8315 25.16C90.2795 24.9147 90.7968 24.792 91.3835 24.792C91.8742 24.792 92.3382 24.888 92.7755 25.08C93.2235 25.2613 93.6128 25.5333 93.9435 25.896C94.2848 26.248 94.5515 26.6853 94.7435 27.208C94.9355 27.7307 95.0315 28.328 95.0315 29C95.0315 29.672 94.9355 30.2693 94.7435 30.792C94.5515 31.3147 94.2902 31.7573 93.9595 32.12C93.6288 32.472 93.2448 32.744 92.8075 32.936C92.3702 33.1173 91.9062 33.208 91.4155 33.208C90.7862 33.208 90.2475 33.08 89.7995 32.824C89.3622 32.5573 89.0048 32.232 88.7275 31.848V36.2H86.6155ZM101.197 32.84C100.898 32.9147 100.599 32.9733 100.301 33.016C100.013 33.0587 99.7354 33.08 99.4688 33.08C98.7221 33.08 98.1408 32.888 97.7248 32.504C97.3194 32.12 97.1168 31.4693 97.1168 30.552V26.776H95.6608V25H97.1168V22.856H99.2288V25H101.261V26.776H99.2288V30.248C99.2288 30.504 99.2928 30.6907 99.4208 30.808C99.5488 30.9147 99.7514 30.968 100.029 30.968C100.189 30.968 100.349 30.9627 100.509 30.952C100.679 30.9307 100.909 30.8933 101.197 30.84V32.84ZM101.963 29C101.963 28.3813 102.07 27.816 102.283 27.304C102.507 26.7813 102.811 26.3387 103.195 25.976C103.579 25.6027 104.033 25.3147 104.555 25.112C105.078 24.9093 105.649 24.808 106.267 24.808C106.886 24.808 107.457 24.9093 107.979 25.112C108.502 25.3147 108.955 25.6027 109.339 25.976C109.723 26.3387 110.022 26.7813 110.235 27.304C110.459 27.816 110.571 28.3813 110.571 29C110.571 29.6293 110.459 30.2 110.235 30.712C110.022 31.224 109.723 31.6667 109.339 32.04C108.955 32.4027 108.502 32.6853 107.979 32.888C107.457 33.0907 106.886 33.192 106.267 33.192C105.649 33.192 105.078 33.0907 104.555 32.888C104.033 32.6853 103.579 32.4027 103.195 32.04C102.811 31.6667 102.507 31.224 102.283 30.712C102.07 30.2 101.963 29.6293 101.963 29ZM108.235 29.88C108.342 29.6133 108.395 29.32 108.395 29C108.395 28.68 108.342 28.392 108.235 28.136C108.129 27.8693 107.979 27.6453 107.787 27.464C107.595 27.272 107.366 27.128 107.099 27.032C106.843 26.9253 106.566 26.872 106.267 26.872C105.969 26.872 105.686 26.9253 105.419 27.032C105.163 27.128 104.939 27.272 104.747 27.464C104.555 27.6453 104.406 27.8693 104.299 28.136C104.193 28.392 104.139 28.68 104.139 29C104.139 29.32 104.193 29.6133 104.299 29.88C104.406 30.136 104.555 30.36 104.747 30.552C104.939 30.7333 105.163 30.8773 105.419 30.984C105.686 31.08 105.969 31.128 106.267 31.128C106.566 31.128 106.843 31.08 107.099 30.984C107.366 30.8773 107.595 30.7333 107.787 30.552C107.979 30.36 108.129 30.136 108.235 29.88ZM113.976 26.152C114.253 25.7573 114.605 25.4373 115.032 25.192C115.469 24.936 115.981 24.808 116.568 24.808C117.507 24.808 118.211 25.096 118.68 25.672C119.16 26.2373 119.4 27.0267 119.4 28.04V33H117.24V28.568C117.24 27.96 117.107 27.5227 116.84 27.256C116.584 26.9787 116.232 26.84 115.784 26.84C115.165 26.84 114.717 27.0533 114.44 27.48C114.173 27.896 114.04 28.4613 114.04 29.176V33H111.928V25H113.976V26.152Z" fill="#2D3039" />
    <path d="M135 32L131.536 26L138.464 26L135 32Z" fill="#2D3039" />
    <path d="M1.28 12V0.799999H8.16V2.24H2.72V5.68H8.16V7.12H2.72V12H1.28ZM11.2449 5.2C11.7675 4.272 12.5729 3.808 13.6609 3.808C13.8955 3.808 14.1569 3.83467 14.4449 3.888V5.344C14.1782 5.28 13.9115 5.248 13.6449 5.248C12.7915 5.248 12.1835 5.50933 11.8209 6.032C11.4689 6.55467 11.2929 7.30133 11.2929 8.272V12H9.91688V4H11.2449V5.2ZM15.8831 10.992C15.0831 10.192 14.6831 9.19467 14.6831 8C14.6831 6.80533 15.0831 5.808 15.8831 5.008C16.6831 4.208 17.6805 3.808 18.8751 3.808C20.0698 3.808 21.0671 4.208 21.8671 5.008C22.6671 5.808 23.0671 6.80533 23.0671 8C23.0671 9.19467 22.6671 10.192 21.8671 10.992C21.0671 11.792 20.0698 12.192 18.8751 12.192C17.6805 12.192 16.6831 11.792 15.8831 10.992ZM20.8751 10.064C21.3871 9.53067 21.6431 8.84267 21.6431 8C21.6431 7.15733 21.3871 6.46933 20.8751 5.936C20.3631 5.40267 19.6965 5.136 18.8751 5.136C18.0538 5.136 17.3871 5.40267 16.8751 5.936C16.3631 6.46933 16.1071 7.15733 16.1071 8C16.1071 8.84267 16.3631 9.53067 16.8751 10.064C17.3871 10.5973 18.0538 10.864 18.8751 10.864C19.6965 10.864 20.3631 10.5973 20.8751 10.064ZM31.1629 5.392C31.8669 4.336 32.8589 3.808 34.1389 3.808C36.2082 3.808 37.2429 5.00267 37.2429 7.392V12H35.8509V7.216C35.8509 5.79733 35.2322 5.088 33.9949 5.088C32.4162 5.088 31.6269 6.14933 31.6269 8.272V12H30.2509V7.216C30.2509 5.79733 29.6215 5.088 28.3629 5.088C26.8162 5.088 26.0429 6.14933 26.0429 8.272V12H24.6669V4H25.9949V5.28C26.4962 4.29867 27.3442 3.808 28.5389 3.808C29.7975 3.808 30.6722 4.336 31.1629 5.392Z" fill="#747780" />
</svg>