<svg width="579" height="579" viewBox="0 0 579 579" fill="none" xmlns="http://www.w3.org/2000/svg">
<path
d="M193.74 433.231C197.478 433.231 200.521 430.181 200.521 426.432C200.521 422.683 197.479 419.633 193.74 419.633C190 419.633 186.958 422.683 186.958 426.432C186.958 430.182 190 433.231 193.74 433.231Z"
fill="#EFEFEF" />
<path
d="M193.74 420.739C190.604 420.739 188.061 423.288 188.061 426.432C188.061 429.577 190.604 432.125 193.74 432.125C196.875 432.125 199.418 429.577 199.418 426.432C199.418 423.288 196.875 420.739 193.74 420.739ZM193.74 418.529C198.086 418.529 201.622 422.075 201.622 426.432C201.622 430.789 198.086 434.335 193.74 434.335C189.393 434.335 185.857 430.789 185.857 426.432C185.857 422.075 189.392 418.529 193.74 418.529Z"
fill="#EFEFEF" />
<path
d="M193.74 430.373C191.569 430.373 189.81 428.609 189.81 426.433C189.81 424.257 191.569 422.493 193.74 422.493C195.91 422.493 197.669 424.257 197.669 426.433C197.669 428.609 195.91 430.373 193.74 430.373Z"
fill="#EFEFEF" />
<path
d="M187.254 358.224H213.219V306.971H187.254V358.224ZM209.18 354.173H191.293V311.022H209.18V354.173Z"
fill="#EFEFEF" />
<path d="M207.914 315.463H215.774V351.025H207.914V315.463Z" fill="#EFEFEF" />
<path
d="M128.334 259.534H175.41V148.966H128.334V259.534ZM171.54 255.654H132.203V152.846H171.54V255.654Z"
fill="#EFEFEF" />
<path d="M189.022 405.662H194.362V428.293H189.022V405.662Z" fill="#EFEFEF" />
<path
d="M112.808 433.231C116.546 433.231 119.589 430.181 119.589 426.432C119.589 422.683 116.547 419.633 112.808 419.633C109.069 419.633 106.026 422.683 106.026 426.432C106.026 430.182 109.069 433.231 112.808 433.231Z"
fill="#EFEFEF" />
<path
d="M112.807 420.739C109.671 420.739 107.129 423.288 107.129 426.432C107.129 429.577 109.671 432.125 112.807 432.125C115.942 432.125 118.485 429.577 118.485 426.432C118.485 423.288 115.943 420.739 112.807 420.739ZM112.807 418.529C117.153 418.529 120.69 422.075 120.69 426.432C120.69 430.789 117.153 434.335 112.807 434.335C108.46 434.335 104.924 430.789 104.924 426.432C104.924 422.075 108.461 418.529 112.807 418.529Z"
fill="#EFEFEF" />
<path
d="M112.807 430.373C110.637 430.373 108.877 428.609 108.877 426.433C108.877 424.257 110.637 422.493 112.807 422.493C114.977 422.493 116.736 424.257 116.736 426.433C116.736 428.609 114.977 430.373 112.807 430.373Z"
fill="#EFEFEF" />
<path d="M108.09 405.662H113.43V428.293H108.09V405.662Z" fill="#EFEFEF" />
<path d="M96.5 245.083H206.785V417.74H96.5V245.083Z" fill="#EFEFEF" />
<path d="M104.89 255.654H198.396V297.682H104.89V255.654Z" fill="#EFEFEF" />
<path d="M104.89 308.028H198.396V315.14H104.89V308.028Z" fill="#EFEFEF" />
<path d="M134.782 146.38H170.25V154.785H134.782V146.38Z" fill="#EFEFEF" />
<path d="M193.789 310.614H195.401V311.26H193.789V310.614Z" fill="#EFEFEF" />
<path
d="M112.748 311.26H115.865V310.614H112.748V311.26ZM118.983 311.26H122.1V310.614H118.983V311.26ZM125.216 311.26H128.333V310.614H125.216V311.26ZM131.451 311.26H134.567V310.614H131.451V311.26ZM137.685 311.26H140.802V310.614H137.685V311.26ZM143.918 311.26H147.034V310.614H143.918V311.26ZM150.152 311.26H153.269V310.614H150.152V311.26ZM156.386 311.26H159.503V310.614H156.386V311.26ZM162.619 311.26H165.736V310.614H162.619V311.26ZM168.853 311.26H171.97V310.614H168.853V311.26ZM175.088 311.26H178.204V310.614H175.088V311.26ZM181.32 311.26H184.437V310.614H181.32V311.26ZM187.555 311.26H190.671V310.614H187.555V311.26Z"
fill="#EFEFEF" />
<path d="M108.019 310.614H109.632V311.26H108.019V310.614Z" fill="#EFEFEF" />
<path
d="M101.91 332.097C101.953 332.097 101.996 332.094 102.039 332.089L113.745 330.781C114.128 330.739 114.466 330.507 114.646 330.166C114.826 329.824 114.827 329.415 114.648 329.073L108.594 317.544C108.385 317.147 107.966 316.899 107.52 316.92C107.073 316.935 106.674 317.206 106.493 317.617L100.839 330.455C100.67 330.838 100.718 331.282 100.966 331.621C101.19 331.922 101.541 332.097 101.91 332.097ZM111.786 328.644L103.799 329.537L107.656 320.778L111.786 328.644Z"
fill="#EFEFEF" />
<path d="M106.406 310.614H109.631V324.192H106.406V310.614Z" fill="#EFEFEF" />
<path d="M126.309 176.12H134.845V196.811H126.309V176.12Z" fill="#EFEFEF" />
<path d="M101.271 176.12H126.346V196.811H101.271V176.12Z" fill="#EFEFEF" />
<path
d="M164.351 388.289C164.948 388.289 165.53 388.168 166.076 387.861L166.236 387.772L166.241 387.589C166.287 385.987 165.173 384.645 164.125 383.513C154.123 372.701 142.914 362.971 130.811 354.592C130.664 354.489 130.463 354.526 130.361 354.674C130.259 354.821 130.296 355.023 130.444 355.123C142.509 363.476 153.682 373.175 163.653 383.952C164.612 384.989 165.546 386.103 165.596 387.383C164.343 387.972 162.773 387.444 161.388 386.897C158.083 385.59 154.889 384.201 151.8 382.859C145.61 380.168 139.208 377.386 131.571 375.107C131.389 375.052 131.009 374.939 130.844 375.233C130.654 375.571 130.952 375.841 131.936 376.738C132.958 377.67 135.086 379.608 134.502 380.297C134.03 380.853 132.511 380.149 131.603 379.728C131.422 379.643 131.253 379.564 131.104 379.501C130.942 379.429 130.751 379.505 130.681 379.67C130.61 379.833 130.685 380.024 130.848 380.095C130.993 380.158 131.156 380.233 131.332 380.316C132.545 380.878 134.205 381.649 134.993 380.715C135.98 379.55 133.893 377.648 132.369 376.259C132.242 376.143 132.109 376.021 131.984 375.906C139.321 378.14 145.532 380.839 151.543 383.453C154.636 384.797 157.835 386.187 161.15 387.499C162.169 387.899 163.281 388.289 164.351 388.289Z"
fill="#EFEFEF" />
<path
d="M252.404 401.121L277.311 401.122C277.311 401.122 288.052 412.538 301.15 418.123C314.249 423.708 318.178 431.248 318.178 431.248L241.551 431.245L252.404 401.121Z"
fill="#EFEFEF" />
<path
d="M261.365 360.75L285.738 355.651C285.738 355.651 298.61 364.624 312.584 367.408C326.557 370.192 331.96 376.765 331.96 376.765L256.972 392.452L261.365 360.75Z"
fill="#EFEFEF" />
<path
d="M181.757 227.382C181.757 227.382 238.404 237.33 253.158 243.309C267.913 249.288 268.933 265.208 275.329 298.245C282.763 336.65 286.177 355.862 286.177 355.862L258.371 361.478C258.371 361.478 248.651 356.617 245.361 339.848C242.071 323.078 243.804 321.509 239.811 312.519C235.817 303.528 232.621 298.645 232.621 287.092C232.62 275.54 225.926 269.832 215.942 270.459C205.958 271.086 161.563 270.598 142.68 240.286L138.451 233.498C138.451 233.498 169.784 221.184 181.757 227.382Z"
fill="#EFEFEF" />
<path
d="M236.435 175.589C236.435 175.589 242.032 173.235 242.032 168.918C242.032 164.601 249.377 161.61 249.377 161.61L243.693 172.895L240.697 179.215C240.696 179.214 234.513 189.733 236.435 175.589Z"
fill="#EFEFEF" />
<path
d="M233.026 378.127C236.27 385.446 245.512 396.571 252.405 401.12L277.312 401.121C276.277 396.904 255.087 310.102 246.737 294.828C239.924 282.379 230.307 269.218 220.74 257.754L196.831 229.902L173.116 234.625C172.281 234.288 170.744 234.038 169.823 233.732C168.112 233.158 166.498 239.656 164.292 238.138C160.536 240.01 140.534 238.288 137.793 239.363C139.548 259.614 157.068 274.502 177.774 284.627C216.394 303.514 209.341 312.908 212.593 325.552C215.819 338.202 218.076 345.75 225.435 354.815C232.811 363.882 226.857 364.162 233.026 378.127Z"
fill="#EFEFEF" />
<path
d="M257.965 176.128L243.523 172.855C242.668 172.661 242.133 171.814 242.327 170.963C242.377 170.742 242.474 170.536 242.612 170.356L261.641 145.499C262.025 144.998 262.672 144.771 263.287 144.923L277.813 148.509C278.665 148.72 279.184 149.576 278.972 150.424C278.918 150.637 278.821 150.838 278.687 151.012L259.573 175.557C259.194 176.042 258.566 176.265 257.965 176.128Z"
fill="#EFEFEF" />
<path
d="M237.796 178.998C237.796 178.998 241.923 175.897 243.693 172.894C243.693 172.894 246.407 173.521 248.099 173.793C248.099 173.793 248.32 169.51 256.817 168.787C264.478 168.134 263.469 166.477 268.208 164.935C272.948 163.393 274.881 164.785 275.147 166.359C275.147 166.359 270.159 168.153 269.01 169.991C267.861 171.829 266.489 176.326 262.332 177.779C258.175 179.232 243.835 180.374 240.846 189.951L237.796 178.998Z"
fill="#EFEFEF" />
<path opacity="0.66"
d="M170.418 252.425C170.505 252.462 170.605 252.422 170.644 252.335C170.681 252.249 170.64 252.149 170.554 252.112C170.467 252.075 170.367 252.115 170.329 252.201C170.291 252.287 170.331 252.388 170.418 252.425ZM172.029 248.582C172.12 248.617 172.222 248.578 172.265 248.49C172.298 248.402 172.253 248.301 172.164 248.269C172.084 248.229 171.987 248.262 171.947 248.341C171.944 248.347 171.942 248.353 171.939 248.359C171.902 248.446 171.942 248.545 172.029 248.582ZM173.652 244.738C173.738 244.775 173.839 244.735 173.875 244.649C173.91 244.558 173.871 244.456 173.783 244.413C173.69 244.383 173.588 244.428 173.548 244.516C173.517 244.606 173.563 244.705 173.652 244.738ZM175.262 240.896C175.349 240.933 175.45 240.893 175.487 240.807C175.523 240.716 175.483 240.614 175.394 240.572C175.308 240.534 175.207 240.575 175.171 240.661C175.133 240.752 175.175 240.855 175.262 240.896ZM187.954 252.38C187.99 252.47 188.091 252.514 188.18 252.479C188.263 252.449 188.307 252.358 188.277 252.275C188.274 252.268 188.272 252.26 188.268 252.255C188.235 252.169 188.14 252.123 188.052 252.154C187.963 252.19 187.919 252.29 187.954 252.38ZM164.396 245.684C164.461 245.749 164.568 245.751 164.633 245.686C164.699 245.621 164.701 245.515 164.635 245.45C164.57 245.385 164.463 245.382 164.398 245.447C164.331 245.506 164.324 245.605 164.384 245.671C164.388 245.676 164.391 245.679 164.396 245.684ZM167.365 242.751C167.416 242.803 167.498 242.813 167.559 242.771L167.57 242.77C167.584 242.77 167.595 242.764 167.603 242.753C167.644 242.716 167.664 242.66 167.654 242.605C167.648 242.568 167.631 242.533 167.606 242.506C167.541 242.441 167.435 242.439 167.369 242.503C167.299 242.568 167.296 242.676 167.361 242.744C167.361 242.747 167.363 242.749 167.365 242.751ZM170.336 239.818C170.404 239.88 170.51 239.875 170.572 239.808C170.638 239.743 170.639 239.637 170.574 239.572C170.509 239.506 170.402 239.505 170.337 239.57C170.267 239.635 170.264 239.743 170.329 239.811C170.332 239.814 170.333 239.816 170.336 239.818ZM179.072 251.834C179.078 251.929 179.155 252.005 179.251 252.01C179.349 252.009 179.428 251.93 179.428 251.832C179.427 251.734 179.347 251.655 179.249 251.656C179.153 251.663 179.077 251.74 179.072 251.834ZM179.084 247.67C179.088 247.764 179.167 247.837 179.262 247.833C179.353 247.84 179.433 247.772 179.44 247.682C179.44 247.677 179.44 247.672 179.44 247.667C179.438 247.57 179.359 247.493 179.262 247.491C179.167 247.499 179.09 247.575 179.084 247.67ZM147.603 253.455C147.72 253.591 147.924 253.607 148.061 253.493C148.064 253.49 148.067 253.488 148.07 253.485C148.205 253.37 148.219 253.168 148.104 253.035C148.103 253.034 148.103 253.033 148.103 253.033C147.986 252.897 147.782 252.88 147.645 252.995C147.642 252.998 147.639 253 147.636 253.003C147.501 253.118 147.487 253.32 147.602 253.453C147.602 253.454 147.603 253.455 147.603 253.455ZM153.591 248.279C153.712 248.415 153.921 248.43 154.057 248.31C154.195 248.19 154.209 247.982 154.089 247.846L154.088 247.845C153.972 247.711 153.769 247.698 153.635 247.811C153.635 247.812 153.634 247.812 153.634 247.813C153.497 247.933 153.479 248.138 153.591 248.279ZM159.592 243.101C159.712 243.238 159.922 243.251 160.058 243.131C160.195 243.012 160.209 242.803 160.089 242.667C159.968 242.531 159.759 242.517 159.623 242.637C159.486 242.753 159.468 242.956 159.584 243.093C159.587 243.096 159.59 243.098 159.592 243.101ZM171.429 273.24C171.42 273.421 171.557 273.574 171.737 273.587C171.911 273.606 172.067 273.482 172.087 273.309C172.087 273.304 172.087 273.298 172.088 273.292C172.098 273.111 171.96 272.958 171.78 272.945C171.601 272.931 171.443 273.062 171.429 273.24ZM171.982 265.37C171.975 265.551 172.115 265.704 172.297 265.711C172.475 265.719 172.627 265.586 172.64 265.408C172.654 265.23 172.521 265.074 172.342 265.061C172.159 265.054 172.003 265.189 171.982 265.37ZM172.545 257.485C172.531 257.663 172.664 257.818 172.842 257.832C172.846 257.832 172.85 257.833 172.854 257.833C173.028 257.851 173.184 257.727 173.203 257.555C173.204 257.549 173.204 257.544 173.205 257.538C173.211 257.355 173.075 257.2 172.894 257.18C172.712 257.169 172.557 257.306 172.545 257.485ZM173.097 249.615C173.088 249.795 173.227 249.949 173.408 249.96C173.589 249.969 173.743 249.833 173.755 249.653C173.769 249.475 173.637 249.319 173.457 249.306C173.457 249.306 173.457 249.306 173.457 249.306C173.275 249.289 173.115 249.422 173.098 249.602C173.097 249.606 173.097 249.61 173.097 249.615ZM173.659 241.73C173.644 241.908 173.776 242.064 173.955 242.078C174.134 242.093 174.29 241.962 174.304 241.784C174.304 241.779 174.305 241.774 174.305 241.77C174.321 241.594 174.191 241.439 174.014 241.423C174.012 241.423 174.01 241.423 174.007 241.422C173.828 241.414 173.672 241.551 173.659 241.73ZM156.345 265.518C156.509 265.593 156.702 265.521 156.777 265.359C156.853 265.198 156.781 265.004 156.617 264.929C156.457 264.856 156.268 264.923 156.189 265.079C156.113 265.244 156.183 265.438 156.345 265.518ZM159.89 258.449C160.053 258.524 160.246 258.453 160.322 258.291C160.397 258.129 160.325 257.936 160.161 257.861C160.001 257.787 159.812 257.855 159.734 258.012C159.659 258.175 159.727 258.369 159.89 258.449ZM163.436 251.393C163.603 251.47 163.802 251.398 163.88 251.232C163.956 251.072 163.891 250.881 163.734 250.798C163.57 250.713 163.369 250.775 163.283 250.936C163.197 251.098 163.26 251.299 163.422 251.385C163.425 251.388 163.43 251.39 163.436 251.393ZM166.978 244.314C167.136 244.397 167.332 244.337 167.416 244.179C167.418 244.176 167.419 244.173 167.42 244.17C167.503 244.011 167.442 243.815 167.282 243.733C167.122 243.65 166.926 243.712 166.843 243.87C166.841 243.874 166.839 243.879 166.837 243.885C166.754 244.035 166.81 244.222 166.96 244.304C166.965 244.306 166.972 244.31 166.978 244.314ZM186.459 267.703C186.52 267.874 186.707 267.962 186.879 267.905C187.048 267.851 187.139 267.67 187.084 267.503C187.084 267.502 187.083 267.5 187.083 267.499C187.039 267.332 186.866 267.234 186.698 267.277C186.691 267.279 186.682 267.282 186.675 267.284C186.504 267.348 186.41 267.53 186.459 267.703ZM183.946 260.208C184.01 260.377 184.192 260.469 184.367 260.421C184.538 260.361 184.627 260.175 184.569 260.004C184.511 259.833 184.327 259.743 184.156 259.801C184.154 259.801 184.152 259.801 184.151 259.802C183.982 259.856 183.89 260.037 183.946 260.204C183.946 260.205 183.946 260.207 183.946 260.208ZM181.436 252.723C181.487 252.887 181.662 252.981 181.829 252.931C181.834 252.929 181.838 252.928 181.844 252.927C182.017 252.876 182.114 252.696 182.064 252.523C182.062 252.518 182.06 252.513 182.059 252.507C181.999 252.335 181.813 252.245 181.64 252.303C181.467 252.362 181.377 252.548 181.436 252.72C181.436 252.722 181.436 252.723 181.436 252.723ZM178.912 245.229C178.973 245.399 179.159 245.488 179.331 245.43C179.497 245.38 179.59 245.205 179.54 245.04C179.539 245.035 179.537 245.031 179.536 245.026C179.48 244.854 179.3 244.761 179.127 244.811C178.953 244.87 178.857 245.054 178.912 245.229ZM149.474 261.878C149.611 261.962 149.79 261.921 149.877 261.787C149.963 261.652 149.923 261.472 149.788 261.386C149.652 261.3 149.472 261.341 149.385 261.475C149.385 261.476 149.385 261.476 149.384 261.477C149.299 261.612 149.339 261.79 149.474 261.878ZM153.23 255.9C153.366 255.983 153.545 255.943 153.632 255.809C153.722 255.675 153.687 255.495 153.553 255.405C153.419 255.315 153.238 255.351 153.147 255.483C153.144 255.488 153.142 255.492 153.138 255.498C153.052 255.629 153.087 255.805 153.219 255.891C153.223 255.895 153.226 255.898 153.23 255.9ZM156.866 249.75C156.878 249.823 156.922 249.886 156.985 249.923C157.121 250.007 157.3 249.966 157.387 249.832C157.476 249.695 157.435 249.511 157.298 249.422C157.297 249.421 157.296 249.421 157.295 249.42C157.212 249.368 157.109 249.359 157.019 249.399L157.007 249.4C156.956 249.421 156.914 249.46 156.892 249.511C156.843 249.581 156.832 249.671 156.866 249.75ZM160.741 243.945C160.881 244.03 161.063 243.984 161.148 243.846C161.232 243.707 161.188 243.528 161.05 243.442C160.914 243.357 160.734 243.399 160.648 243.533C160.559 243.671 160.6 243.854 160.738 243.944C160.739 243.944 160.74 243.945 160.741 243.945ZM178.753 266.584C178.796 266.742 178.955 266.839 179.115 266.805C179.268 266.771 179.364 266.621 179.33 266.469C179.329 266.465 179.329 266.462 179.328 266.457C179.295 266.3 179.14 266.2 178.982 266.233C178.98 266.233 178.979 266.234 178.977 266.234C178.822 266.275 178.724 266.427 178.753 266.584ZM177.17 259.725C177.209 259.879 177.365 259.973 177.52 259.937C177.672 259.903 177.769 259.753 177.735 259.601C177.734 259.597 177.733 259.594 177.732 259.589C177.699 259.432 177.544 259.332 177.386 259.365C177.385 259.365 177.383 259.366 177.381 259.366C177.225 259.411 177.131 259.569 177.17 259.725ZM175.574 252.846C175.607 253.003 175.762 253.103 175.92 253.07C175.921 253.07 175.923 253.069 175.925 253.069C176.074 253.041 176.172 252.896 176.143 252.749C176.142 252.739 176.14 252.731 176.138 252.723C176.104 252.566 175.949 252.465 175.792 252.499C175.79 252.499 175.788 252.5 175.787 252.5C175.633 252.54 175.54 252.693 175.574 252.846ZM173.98 245.991C174.022 246.147 174.184 246.241 174.34 246.199C174.493 246.159 174.586 246.006 174.553 245.852C174.513 245.698 174.359 245.601 174.202 245.63C174.044 245.673 173.946 245.831 173.98 245.991ZM172.383 239.112C172.418 239.269 172.575 239.37 172.734 239.336C172.892 239.301 172.993 239.145 172.958 238.987V238.986C172.916 238.828 172.757 238.731 172.597 238.765C172.446 238.81 172.354 238.959 172.383 239.112ZM146.511 245.009C146.604 245.138 146.783 245.168 146.912 245.079C146.915 245.076 146.919 245.074 146.922 245.071C147.049 244.986 147.082 244.814 146.997 244.688C146.993 244.683 146.99 244.679 146.987 244.674C146.897 244.541 146.715 244.507 146.582 244.595C146.58 244.596 146.577 244.598 146.573 244.601C146.445 244.698 146.418 244.878 146.511 245.009ZM163.561 263.369C163.54 263.528 163.65 263.675 163.808 263.7C163.966 263.727 164.116 263.622 164.143 263.466C164.167 263.307 164.063 263.156 163.906 263.122C163.742 263.097 163.59 263.207 163.561 263.369ZM164.738 256.414C164.706 256.565 164.805 256.714 164.956 256.745C164.962 256.746 164.968 256.747 164.973 256.747C165.131 256.774 165.281 256.669 165.308 256.513C165.332 256.354 165.228 256.203 165.071 256.169C164.912 256.147 164.764 256.256 164.738 256.414ZM165.905 249.46C165.877 249.617 165.983 249.766 166.14 249.793C166.298 249.821 166.448 249.715 166.475 249.559C166.501 249.403 166.396 249.253 166.239 249.226C166.082 249.199 165.933 249.304 165.905 249.46ZM167.071 242.508C167.045 242.665 167.15 242.814 167.307 242.841C167.397 242.86 167.491 242.834 167.558 242.771L167.57 242.77C167.612 242.724 167.642 242.667 167.653 242.605C167.675 242.446 167.564 242.299 167.406 242.274C167.249 242.246 167.099 242.351 167.071 242.508ZM190.086 257.735C190.172 257.861 190.344 257.894 190.472 257.809C190.477 257.806 190.481 257.803 190.486 257.799C190.62 257.71 190.655 257.529 190.566 257.397C190.564 257.394 190.562 257.392 190.56 257.388C190.46 257.261 190.279 257.234 190.148 257.326C190.018 257.417 189.986 257.596 190.078 257.725C190.081 257.729 190.083 257.732 190.086 257.735ZM185.968 251.993C186.064 252.125 186.247 252.156 186.382 252.066C186.513 251.968 186.538 251.783 186.441 251.652C186.347 251.529 186.173 251.498 186.043 251.582C185.91 251.669 185.871 251.847 185.96 251.98C185.96 251.984 185.965 251.989 185.968 251.993ZM149.936 244.407C150.008 244.472 150.118 244.468 150.184 244.397C150.249 244.326 150.245 244.216 150.173 244.151C150.101 244.086 149.991 244.09 149.926 244.161C149.862 244.234 149.868 244.341 149.936 244.407ZM166.36 250.424C166.363 250.519 166.442 250.591 166.537 250.588C166.632 250.585 166.705 250.506 166.702 250.412C166.698 250.317 166.62 250.244 166.525 250.248C166.429 250.251 166.356 250.33 166.36 250.424ZM166.208 246.271C166.217 246.367 166.3 246.438 166.396 246.432C166.491 246.429 166.565 246.351 166.561 246.256C166.562 246.165 166.488 246.093 166.397 246.092C166.393 246.092 166.388 246.092 166.383 246.093C166.286 246.092 166.207 246.17 166.206 246.266C166.208 246.268 166.208 246.27 166.208 246.271ZM166.068 242.116C166.071 242.21 166.149 242.284 166.244 242.28C166.339 242.278 166.413 242.199 166.41 242.105C166.41 242.104 166.41 242.104 166.41 242.103C166.411 242.012 166.337 241.94 166.247 241.939C166.243 241.939 166.238 241.939 166.233 241.94C166.14 241.942 166.066 242.021 166.068 242.116C166.068 242.115 166.068 242.116 166.068 242.116ZM158.246 246.978C158.335 247.004 158.43 246.961 158.469 246.877C158.503 246.791 158.463 246.693 158.375 246.658C158.373 246.658 158.369 246.656 158.366 246.655C158.282 246.62 158.185 246.658 158.149 246.741C158.147 246.746 158.145 246.75 158.144 246.756C158.112 246.845 158.157 246.944 158.246 246.978ZM159.72 243.085C159.809 243.111 159.905 243.068 159.943 242.984C159.973 242.895 159.928 242.797 159.841 242.762C159.758 242.724 159.66 242.759 159.621 242.842C159.619 242.845 159.618 242.849 159.617 242.852C159.579 242.941 159.62 243.044 159.71 243.082C159.712 243.082 159.716 243.083 159.72 243.085ZM174.14 246.465C174.179 246.551 174.279 246.589 174.366 246.551C174.452 246.513 174.491 246.413 174.453 246.327C174.424 246.244 174.332 246.201 174.249 246.231C174.242 246.233 174.234 246.236 174.229 246.24C174.143 246.276 174.103 246.374 174.139 246.459C174.14 246.46 174.14 246.463 174.14 246.465ZM172.406 242.681C172.448 242.77 172.554 242.806 172.643 242.766C172.725 242.727 172.76 242.627 172.72 242.545C172.72 242.545 172.72 242.544 172.719 242.544C172.689 242.462 172.598 242.419 172.515 242.448C172.509 242.451 172.501 242.453 172.495 242.457C172.409 242.493 172.37 242.592 172.405 242.676C172.404 242.678 172.405 242.679 172.406 242.681ZM146.954 248.533C147.041 248.59 147.158 248.565 147.214 248.478C147.215 248.476 147.215 248.474 147.217 248.473C147.278 248.386 147.255 248.266 147.169 248.207C147.165 248.204 147.161 248.202 147.156 248.199C147.069 248.142 146.952 248.167 146.896 248.254C146.895 248.256 146.894 248.258 146.893 248.259C146.835 248.351 146.861 248.474 146.954 248.533ZM149.515 244.536C149.609 244.595 149.732 244.567 149.791 244.474C149.851 244.381 149.823 244.258 149.729 244.2C149.642 244.143 149.525 244.168 149.469 244.255C149.468 244.256 149.468 244.258 149.466 244.26C149.401 244.344 149.419 244.464 149.503 244.527C149.507 244.531 149.511 244.533 149.515 244.536ZM166.638 251.919C166.655 252.018 166.749 252.086 166.85 252.069C166.857 252.068 166.865 252.066 166.872 252.064C166.976 252.039 167.041 251.935 167.017 251.831C166.989 251.728 166.889 251.661 166.782 251.675C166.675 251.703 166.61 251.811 166.638 251.917C166.637 251.918 166.637 251.919 166.638 251.919ZM165.603 247.285C165.631 247.392 165.739 247.456 165.846 247.429C165.847 247.429 165.847 247.429 165.848 247.429C165.952 247.404 166.016 247.299 165.993 247.196C165.965 247.093 165.865 247.025 165.758 247.04C165.65 247.07 165.583 247.176 165.603 247.285ZM164.589 242.638C164.601 242.739 164.692 242.813 164.794 242.8C164.803 242.799 164.813 242.797 164.823 242.794C164.927 242.77 164.991 242.665 164.967 242.561C164.939 242.458 164.839 242.391 164.733 242.405C164.629 242.43 164.566 242.534 164.589 242.638ZM156.866 249.75C156.889 249.767 156.915 249.779 156.943 249.787C157.048 249.806 157.148 249.737 157.168 249.632C157.168 249.63 157.169 249.628 157.169 249.626C157.186 249.523 157.121 249.424 157.02 249.398L157.008 249.4C156.903 249.38 156.802 249.449 156.782 249.554C156.782 249.556 156.782 249.558 156.782 249.561C156.765 249.637 156.8 249.712 156.866 249.75ZM157.623 244.883C157.601 244.986 157.666 245.087 157.77 245.11C157.77 245.11 157.771 245.11 157.772 245.111C157.88 245.129 157.984 245.065 158.012 244.96C158.026 244.85 157.955 244.749 157.848 244.723C157.742 244.704 157.642 244.776 157.623 244.883ZM174.674 245.954C174.737 246.043 174.859 246.065 174.948 246.001C174.95 246.001 174.951 245.999 174.953 245.998C175.039 245.937 175.059 245.818 174.999 245.733C174.945 245.645 174.83 245.616 174.741 245.668C174.738 245.671 174.734 245.673 174.729 245.675C174.639 245.737 174.612 245.861 174.674 245.954ZM171.951 242.059C172.006 242.145 172.12 242.17 172.204 242.115C172.209 242.112 172.214 242.109 172.219 242.106C172.308 242.053 172.337 241.938 172.284 241.85C172.281 241.847 172.28 241.843 172.277 241.838C172.214 241.746 172.09 241.722 171.997 241.783C171.907 241.847 171.887 241.971 171.951 242.059ZM150.606 261.32C150.575 261.503 150.7 261.676 150.885 261.706C151.07 261.736 151.243 261.611 151.273 261.428C151.304 261.244 151.178 261.072 150.994 261.043C150.809 261.013 150.637 261.137 150.606 261.32ZM151.87 253.281C151.846 253.467 151.975 253.637 152.161 253.666C152.346 253.688 152.514 253.558 152.537 253.375C152.56 253.191 152.43 253.024 152.245 253.001C152.063 252.979 151.899 253.102 151.87 253.281ZM153.145 245.24C153.114 245.423 153.24 245.596 153.424 245.625C153.608 245.655 153.781 245.531 153.812 245.348C153.842 245.165 153.717 244.992 153.533 244.962C153.349 244.931 153.175 245.055 153.145 245.24ZM182.868 261.571C182.984 261.719 183.196 261.752 183.353 261.646C183.502 261.53 183.529 261.316 183.413 261.169C183.3 261.027 183.095 260.996 182.947 261.1C182.796 261.212 182.762 261.419 182.868 261.571ZM178.053 254.993C178.164 255.141 178.374 255.174 178.526 255.07C178.678 254.962 178.713 254.751 178.604 254.599C178.496 254.448 178.284 254.413 178.131 254.522L178.13 254.522C177.98 254.633 177.947 254.841 178.053 254.993ZM173.238 248.416C173.349 248.565 173.558 248.599 173.711 248.493C173.86 248.377 173.893 248.166 173.786 248.01C173.67 247.862 173.455 247.836 173.307 247.951C173.163 248.064 173.133 248.268 173.238 248.416ZM168.424 241.839C168.535 241.988 168.745 242.022 168.897 241.916C169.046 241.8 169.078 241.589 168.973 241.434C168.864 241.288 168.656 241.255 168.509 241.364C168.507 241.365 168.505 241.367 168.502 241.369C168.353 241.466 168.31 241.666 168.408 241.814C168.412 241.822 168.419 241.83 168.424 241.839ZM143.213 246.43C143.374 246.529 143.584 246.477 143.683 246.318C143.782 246.158 143.73 245.948 143.57 245.85C143.409 245.751 143.199 245.802 143.1 245.962C143.005 246.123 143.054 246.329 143.213 246.43ZM165.416 265.201C165.468 265.378 165.648 265.486 165.83 265.451C166.009 265.401 166.115 265.219 166.069 265.04C166.03 264.861 165.853 264.748 165.672 264.787C165.671 264.788 165.668 264.788 165.666 264.788C165.483 264.833 165.371 265.017 165.416 265.201C165.416 265.199 165.416 265.199 165.416 265.201ZM163.497 257.281C163.541 257.464 163.725 257.576 163.91 257.531H163.911C164.088 257.488 164.196 257.309 164.151 257.132C164.111 256.952 163.93 256.839 163.749 256.881C163.568 256.922 163.455 257.101 163.497 257.281ZM161.578 249.373C161.617 249.552 161.794 249.665 161.974 249.626C161.976 249.626 161.978 249.626 161.98 249.625C162.165 249.586 162.282 249.405 162.243 249.221C162.205 249.037 162.023 248.92 161.837 248.958C161.653 248.997 161.535 249.178 161.574 249.362C161.576 249.364 161.577 249.369 161.578 249.373ZM160.458 267.818C160.499 267.998 160.679 268.111 160.86 268.069C161.04 268.029 161.154 267.849 161.112 267.67C161.072 267.494 160.899 267.382 160.722 267.417C160.538 267.454 160.42 267.634 160.458 267.818ZM158.877 259.863C158.915 260.047 159.096 260.164 159.281 260.125C159.46 260.086 159.576 259.914 159.548 259.735C159.507 259.552 159.329 259.432 159.142 259.461C158.96 259.504 158.843 259.681 158.877 259.863ZM157.297 251.908C157.335 252.092 157.516 252.209 157.701 252.17C157.883 252.136 158.002 251.96 157.968 251.78C157.934 251.598 157.757 251.48 157.575 251.515C157.392 251.552 157.269 251.725 157.297 251.908ZM155.728 243.952C155.756 244.128 155.923 244.249 156.099 244.22C156.106 244.219 156.114 244.218 156.121 244.216C156.301 244.18 156.42 244.006 156.388 243.825C156.353 243.644 156.177 243.526 155.994 243.561C155.811 243.597 155.693 243.772 155.728 243.952ZM175.612 240.082C175.771 240.18 175.979 240.136 176.084 239.982C176.183 239.829 176.139 239.624 175.985 239.524C175.841 239.42 175.638 239.452 175.533 239.597C175.53 239.602 175.527 239.606 175.523 239.612C175.416 239.764 175.453 239.972 175.606 240.079C175.607 240.079 175.61 240.081 175.612 240.082ZM145.105 255.345C145.07 255.524 145.189 255.697 145.368 255.732C145.369 255.732 145.37 255.732 145.371 255.733C145.553 255.772 145.733 255.657 145.773 255.477C145.807 255.293 145.689 255.116 145.504 255.077C145.322 255.045 145.145 255.163 145.105 255.345ZM146.712 247.386C146.674 247.567 146.789 247.744 146.971 247.784C147.152 247.822 147.33 247.707 147.37 247.526C147.37 247.525 147.37 247.522 147.37 247.52C147.402 247.337 147.284 247.162 147.101 247.121C146.921 247.086 146.747 247.204 146.711 247.383C146.712 247.385 146.712 247.386 146.712 247.386ZM174.199 257.788C174.306 257.942 174.517 257.981 174.673 257.877C174.826 257.774 174.867 257.568 174.763 257.416C174.668 257.262 174.466 257.213 174.311 257.307C174.306 257.309 174.303 257.312 174.298 257.314C174.14 257.414 174.092 257.621 174.192 257.778C174.194 257.783 174.196 257.786 174.199 257.788ZM169.681 251.04C169.789 251.194 170 251.233 170.156 251.129C170.308 251.026 170.349 250.82 170.245 250.668C170.15 250.514 169.948 250.465 169.793 250.558C169.789 250.561 169.785 250.563 169.78 250.566C169.623 250.666 169.575 250.873 169.674 251.03C169.677 251.034 169.678 251.037 169.681 251.04ZM165.162 244.292C165.27 244.445 165.481 244.485 165.637 244.38C165.789 244.278 165.83 244.072 165.727 243.92C165.625 243.764 165.415 243.72 165.258 243.821C165.101 243.922 165.057 244.132 165.159 244.288C165.16 244.289 165.161 244.29 165.162 244.292ZM160.633 253.819C160.689 253.948 160.838 254.006 160.968 253.951C161.094 253.897 161.154 253.752 161.104 253.625C161.057 253.5 160.916 253.436 160.789 253.484C160.782 253.487 160.773 253.49 160.766 253.494C160.64 253.55 160.582 253.693 160.633 253.819ZM158.216 248.209C158.273 248.338 158.424 248.398 158.553 248.341C158.683 248.285 158.743 248.134 158.686 248.005C158.686 248.005 158.685 248.004 158.685 248.003C158.631 247.876 158.484 247.816 158.355 247.869C158.352 247.87 158.35 247.871 158.347 247.872C158.219 247.931 158.162 248.079 158.216 248.209ZM155.798 242.586C155.855 242.715 156.007 242.773 156.136 242.716C156.265 242.659 156.324 242.508 156.267 242.38C156.21 242.251 156.058 242.193 155.929 242.249C155.802 242.308 155.744 242.457 155.798 242.586ZM147.604 253.208C147.609 253.346 147.724 253.456 147.864 253.456C148.001 253.446 148.108 253.334 148.111 253.197C148.108 253.058 147.993 252.948 147.854 252.95C147.853 252.95 147.853 252.95 147.852 252.95C147.716 252.948 147.604 253.055 147.603 253.189C147.603 253.195 147.603 253.202 147.604 253.208ZM147.523 247.086C147.528 247.227 147.642 247.34 147.784 247.345C147.923 247.342 148.035 247.228 148.033 247.089C148.033 247.089 148.033 247.088 148.033 247.087C148.036 246.953 147.93 246.841 147.795 246.838C147.792 246.838 147.789 246.838 147.786 246.838C147.646 246.834 147.529 246.943 147.525 247.082C147.523 247.084 147.523 247.085 147.523 247.086ZM169.366 244.35C169.462 244.447 169.617 244.449 169.715 244.354C169.717 244.353 169.718 244.351 169.721 244.348C169.822 244.254 169.826 244.097 169.731 243.997C169.727 243.992 169.722 243.987 169.717 243.982C169.612 243.889 169.45 243.898 169.357 244.003C169.269 244.103 169.273 244.255 169.366 244.35ZM149.988 245.12C150.058 245.224 150.2 245.253 150.305 245.183C150.405 245.124 150.439 244.998 150.382 244.897C150.378 244.892 150.374 244.885 150.369 244.879C150.311 244.775 150.182 244.738 150.078 244.794C150.073 244.796 150.067 244.8 150.062 244.803C149.954 244.865 149.917 245 149.979 245.107C149.983 245.111 149.985 245.115 149.988 245.12Z"
fill="#EFEFEF" />
<path opacity="0.66"
d="M185.334 242.672C185.421 242.709 185.522 242.668 185.56 242.582C185.597 242.496 185.556 242.396 185.47 242.359C185.384 242.322 185.283 242.362 185.245 242.448C185.207 242.534 185.247 242.635 185.334 242.672ZM186.945 238.829C187.037 238.864 187.138 238.825 187.182 238.737C187.214 238.649 187.169 238.548 187.08 238.515C187 238.476 186.903 238.509 186.863 238.588C186.86 238.594 186.858 238.6 186.855 238.606C186.818 238.693 186.859 238.791 186.945 238.829ZM202.871 242.627C202.906 242.716 203.007 242.761 203.097 242.726C203.18 242.695 203.223 242.605 203.193 242.521C203.191 242.515 203.188 242.507 203.184 242.501C203.152 242.415 203.056 242.37 202.969 242.401C202.879 242.436 202.835 242.538 202.871 242.627ZM193.989 242.081C193.995 242.177 194.072 242.252 194.168 242.258C194.266 242.257 194.346 242.177 194.345 242.08C194.344 241.982 194.264 241.902 194.166 241.903C194.069 241.909 193.994 241.986 193.989 242.081ZM194.002 237.916C194.005 238.011 194.084 238.084 194.179 238.08C194.27 238.087 194.35 238.019 194.357 237.928C194.357 237.924 194.358 237.919 194.358 237.914C194.355 237.817 194.276 237.739 194.179 237.738C194.084 237.745 194.008 237.821 194.002 237.916ZM162.52 243.701C162.636 243.837 162.841 243.854 162.978 243.739C162.98 243.737 162.984 243.734 162.987 243.732C163.122 243.616 163.135 243.415 163.021 243.281C163.02 243.281 163.02 243.28 163.019 243.28C162.903 243.144 162.699 243.127 162.562 243.242C162.559 243.244 162.556 243.247 162.553 243.249C162.418 243.365 162.403 243.566 162.519 243.7C162.517 243.701 162.519 243.701 162.52 243.701ZM186.346 263.487C186.337 263.667 186.474 263.821 186.655 263.834C186.828 263.852 186.984 263.728 187.004 263.556C187.004 263.55 187.004 263.544 187.005 263.538C187.015 263.358 186.877 263.204 186.697 263.192C186.517 263.177 186.361 263.308 186.346 263.487ZM186.899 255.616C186.891 255.798 187.031 255.95 187.213 255.958C187.391 255.965 187.543 255.832 187.556 255.655C187.57 255.477 187.437 255.321 187.259 255.308C187.076 255.301 186.919 255.436 186.899 255.616ZM187.461 247.732C187.447 247.91 187.581 248.064 187.759 248.079C187.762 248.079 187.766 248.08 187.77 248.08C187.944 248.098 188.1 247.974 188.12 247.802C188.12 247.796 188.12 247.79 188.121 247.784C188.127 247.602 187.992 247.447 187.81 247.427C187.629 247.416 187.473 247.552 187.461 247.732ZM188.014 239.861C188.004 240.042 188.143 240.196 188.325 240.206C188.505 240.216 188.659 240.08 188.671 239.9C188.686 239.722 188.553 239.566 188.374 239.553C188.374 239.553 188.374 239.553 188.373 239.553C188.192 239.536 188.031 239.668 188.014 239.849C188.014 239.852 188.014 239.856 188.014 239.861ZM171.262 255.764C171.426 255.839 171.619 255.767 171.694 255.605C171.77 255.443 171.698 255.25 171.535 255.175C171.376 255.102 171.186 255.169 171.107 255.325C171.03 255.49 171.098 255.685 171.262 255.764ZM174.806 248.696C174.969 248.771 175.162 248.699 175.238 248.538C175.313 248.376 175.241 248.182 175.078 248.107C174.919 248.034 174.729 248.101 174.651 248.258C174.573 248.422 174.644 248.616 174.806 248.696ZM178.353 241.64C178.52 241.718 178.719 241.645 178.797 241.48C178.873 241.32 178.808 241.128 178.651 241.046C178.487 240.96 178.286 241.023 178.2 241.184C178.114 241.346 178.177 241.547 178.339 241.633C178.341 241.635 178.347 241.638 178.353 241.64ZM201.376 257.951C201.437 258.121 201.623 258.21 201.795 258.152C201.964 258.098 202.055 257.918 202 257.75C202 257.749 201.999 257.748 201.999 257.747C201.955 257.58 201.783 257.481 201.615 257.525C201.607 257.527 201.599 257.529 201.591 257.532C201.421 257.596 201.328 257.776 201.376 257.951ZM198.864 250.455C198.927 250.624 199.109 250.715 199.284 250.668C199.455 250.607 199.544 250.422 199.486 250.25C199.428 250.08 199.244 249.99 199.073 250.047C199.071 250.048 199.069 250.048 199.068 250.049C198.899 250.103 198.808 250.283 198.863 250.45C198.863 250.453 198.863 250.453 198.864 250.455ZM196.352 242.97C196.403 243.135 196.578 243.228 196.745 243.179C196.75 243.177 196.755 243.175 196.761 243.174C196.933 243.124 197.031 242.943 196.98 242.77C196.978 242.765 196.977 242.76 196.975 242.754C196.916 242.582 196.729 242.493 196.556 242.551C196.383 242.609 196.294 242.796 196.352 242.968C196.352 242.969 196.352 242.97 196.352 242.97ZM164.39 252.124C164.527 252.208 164.706 252.167 164.793 252.033C164.879 251.898 164.839 251.718 164.704 251.632C164.568 251.546 164.388 251.586 164.301 251.721C164.301 251.721 164.301 251.722 164.3 251.723C164.215 251.86 164.256 252.037 164.39 252.124ZM168.146 246.146C168.282 246.23 168.461 246.189 168.548 246.055C168.638 245.922 168.603 245.742 168.469 245.651C168.335 245.562 168.154 245.597 168.064 245.73C168.06 245.735 168.058 245.739 168.054 245.745C167.968 245.876 168.003 246.052 168.135 246.138C168.139 246.143 168.142 246.144 168.146 246.146ZM171.782 239.996C171.794 240.069 171.838 240.132 171.901 240.169C172.037 240.253 172.216 240.212 172.303 240.078C172.392 239.941 172.351 239.757 172.214 239.667C172.213 239.667 172.212 239.667 172.211 239.666C172.128 239.613 172.026 239.605 171.935 239.645L171.923 239.646C171.872 239.667 171.83 239.706 171.808 239.757C171.759 239.828 171.748 239.917 171.782 239.996ZM193.669 256.83C193.711 256.988 193.87 257.085 194.03 257.051C194.183 257.017 194.28 256.867 194.246 256.715C194.245 256.711 194.244 256.708 194.243 256.703C194.21 256.546 194.055 256.445 193.897 256.479C193.896 256.479 193.894 256.48 193.892 256.48C193.738 256.52 193.64 256.673 193.669 256.83ZM192.088 249.972C192.126 250.126 192.282 250.22 192.437 250.184C192.589 250.15 192.686 250 192.652 249.848C192.651 249.844 192.65 249.841 192.649 249.836C192.616 249.679 192.461 249.578 192.304 249.612C192.302 249.612 192.3 249.613 192.299 249.613C192.142 249.657 192.048 249.815 192.088 249.972ZM190.49 243.093C190.523 243.25 190.678 243.351 190.836 243.318C190.838 243.318 190.839 243.317 190.841 243.317C190.99 243.289 191.089 243.144 191.06 242.996C191.058 242.987 191.056 242.979 191.054 242.97C191.021 242.813 190.866 242.713 190.708 242.747C190.706 242.747 190.705 242.748 190.703 242.748C190.549 242.787 190.456 242.939 190.49 243.093ZM178.478 253.616C178.457 253.774 178.567 253.922 178.725 253.947C178.883 253.973 179.033 253.869 179.06 253.713C179.084 253.554 178.98 253.402 178.823 253.369C178.658 253.343 178.505 253.453 178.478 253.616ZM179.655 246.661C179.623 246.812 179.722 246.96 179.873 246.992C179.879 246.992 179.885 246.993 179.89 246.994C180.048 247.02 180.198 246.916 180.225 246.76C180.249 246.601 180.145 246.449 179.988 246.416C179.828 246.393 179.68 246.502 179.655 246.661ZM180.822 239.708C180.794 239.865 180.9 240.014 181.057 240.041C181.215 240.069 181.365 239.963 181.392 239.807C181.418 239.651 181.313 239.5 181.156 239.473C181 239.446 180.849 239.551 180.822 239.708ZM205.002 247.983C205.088 248.108 205.261 248.141 205.388 248.057C205.393 248.053 205.397 248.05 205.402 248.047C205.536 247.957 205.571 247.777 205.482 247.644C205.48 247.642 205.479 247.639 205.476 247.635C205.377 247.509 205.196 247.482 205.064 247.574C204.935 247.665 204.902 247.843 204.994 247.972C204.997 247.975 204.999 247.978 205.002 247.983ZM200.885 242.24C200.981 242.371 201.164 242.403 201.299 242.313C201.43 242.215 201.456 242.03 201.358 241.899C201.264 241.776 201.09 241.745 200.96 241.829C200.827 241.916 200.789 242.094 200.877 242.226C200.877 242.23 200.881 242.236 200.885 242.24ZM181.276 240.671C181.279 240.766 181.358 240.839 181.453 240.835C181.548 240.831 181.621 240.753 181.618 240.658C181.615 240.564 181.536 240.491 181.441 240.495C181.346 240.498 181.272 240.577 181.276 240.671ZM181.124 236.517C181.133 236.613 181.216 236.685 181.312 236.679C181.407 236.676 181.481 236.597 181.477 236.503C181.478 236.412 181.404 236.339 181.313 236.338C181.309 236.338 181.304 236.338 181.299 236.339C181.202 236.338 181.123 236.417 181.122 236.513C181.124 236.514 181.124 236.516 181.124 236.517ZM181.555 242.165C181.571 242.264 181.666 242.333 181.766 242.315C181.773 242.314 181.782 242.312 181.788 242.31C181.893 242.285 181.957 242.181 181.933 242.077C181.905 241.974 181.805 241.907 181.699 241.921C181.591 241.949 181.527 242.057 181.555 242.163C181.555 242.164 181.555 242.165 181.555 242.165ZM180.518 237.532C180.546 237.639 180.655 237.703 180.761 237.675C180.762 237.675 180.762 237.675 180.763 237.675C180.867 237.651 180.932 237.546 180.908 237.442C180.88 237.34 180.78 237.272 180.673 237.286C180.567 237.317 180.5 237.422 180.518 237.532ZM171.782 239.996C171.805 240.013 171.831 240.025 171.859 240.033C171.964 240.052 172.065 239.983 172.084 239.878C172.084 239.876 172.085 239.874 172.085 239.872C172.102 239.769 172.037 239.67 171.936 239.644L171.924 239.645C171.819 239.626 171.718 239.695 171.699 239.8C171.699 239.802 171.698 239.804 171.698 239.807C171.682 239.883 171.716 239.959 171.782 239.996ZM165.522 251.567C165.491 251.75 165.616 251.923 165.801 251.953C165.986 251.983 166.159 251.858 166.189 251.675C166.219 251.491 166.094 251.319 165.91 251.29C165.726 251.259 165.552 251.384 165.522 251.567ZM166.786 243.528C166.762 243.714 166.891 243.884 167.077 243.912C167.262 243.935 167.43 243.805 167.453 243.621C167.476 243.437 167.346 243.27 167.161 243.248C166.979 243.226 166.815 243.349 166.786 243.528ZM197.784 251.817C197.9 251.965 198.113 251.998 198.27 251.892C198.419 251.776 198.445 251.562 198.329 251.415C198.216 251.273 198.011 251.242 197.863 251.346C197.713 251.458 197.678 251.666 197.784 251.817ZM192.97 245.241C193.081 245.388 193.29 245.422 193.442 245.317C193.594 245.209 193.63 244.999 193.52 244.847C193.412 244.696 193.2 244.66 193.048 244.769L193.047 244.77C192.897 244.881 192.863 245.088 192.97 245.241ZM188.155 238.662C188.266 238.811 188.475 238.845 188.628 238.739C188.776 238.623 188.81 238.412 188.703 238.256C188.587 238.108 188.372 238.082 188.224 238.197C188.079 238.31 188.05 238.514 188.155 238.662ZM180.332 255.448C180.385 255.625 180.564 255.733 180.746 255.697C180.925 255.647 181.031 255.465 180.985 255.287C180.946 255.108 180.769 254.995 180.589 255.033C180.587 255.034 180.584 255.034 180.583 255.035C180.4 255.08 180.288 255.264 180.332 255.448C180.332 255.447 180.332 255.448 180.332 255.448ZM178.413 247.527C178.457 247.71 178.641 247.821 178.826 247.777H178.827C179.004 247.734 179.112 247.555 179.068 247.378C179.027 247.197 178.846 247.085 178.665 247.127C178.484 247.168 178.372 247.347 178.413 247.527ZM176.494 239.619C176.533 239.798 176.71 239.911 176.89 239.872C176.892 239.872 176.894 239.872 176.896 239.871C177.081 239.832 177.198 239.651 177.159 239.467C177.121 239.283 176.939 239.166 176.754 239.204C176.569 239.243 176.451 239.424 176.49 239.608C176.493 239.612 176.493 239.616 176.494 239.619ZM175.374 258.065C175.415 258.244 175.595 258.357 175.776 258.316C175.956 258.276 176.07 258.096 176.028 257.916C175.988 257.741 175.816 257.629 175.639 257.663C175.454 257.7 175.336 257.88 175.374 258.065ZM173.794 250.109C173.832 250.293 174.013 250.41 174.198 250.371C174.377 250.331 174.493 250.159 174.465 249.981C174.423 249.798 174.246 249.678 174.059 249.707C173.875 249.75 173.759 249.927 173.794 250.109ZM172.214 242.155C172.252 242.338 172.433 242.456 172.618 242.417C172.8 242.382 172.919 242.207 172.885 242.026C172.85 241.845 172.674 241.727 172.492 241.762C172.308 241.799 172.185 241.972 172.214 242.155ZM160.021 245.592C159.986 245.771 160.105 245.944 160.284 245.979C160.285 245.979 160.286 245.979 160.287 245.979C160.469 246.018 160.649 245.904 160.689 245.724C160.723 245.54 160.605 245.363 160.42 245.324C160.238 245.291 160.061 245.408 160.021 245.592ZM189.115 248.035C189.223 248.188 189.434 248.228 189.59 248.123C189.742 248.021 189.783 247.815 189.679 247.663C189.585 247.509 189.382 247.46 189.227 247.553C189.223 247.556 189.219 247.558 189.214 247.561C189.057 247.66 189.008 247.868 189.108 248.025C189.111 248.03 189.113 248.032 189.115 248.035ZM184.596 241.288C184.704 241.441 184.915 241.481 185.071 241.376C185.223 241.273 185.264 241.067 185.161 240.916C185.066 240.761 184.863 240.712 184.708 240.806C184.704 240.809 184.701 240.811 184.696 240.814C184.538 240.913 184.49 241.121 184.59 241.277C184.593 241.282 184.595 241.284 184.596 241.288ZM175.549 244.066C175.605 244.195 175.755 244.253 175.884 244.197C176.01 244.143 176.07 243.998 176.02 243.872C175.973 243.747 175.832 243.683 175.705 243.731C175.698 243.733 175.689 243.737 175.682 243.741C175.556 243.797 175.498 243.939 175.549 244.066ZM162.521 243.453C162.525 243.592 162.641 243.702 162.78 243.701C162.918 243.692 163.025 243.58 163.028 243.443C163.025 243.304 162.91 243.194 162.771 243.195C162.77 243.195 162.769 243.195 162.769 243.195C162.633 243.194 162.521 243.301 162.519 243.435C162.52 243.443 162.52 243.448 162.521 243.453Z"
fill="#EFEFEF" />
<path
d="M243.745 204.695C243.745 204.695 240.818 210.725 230.58 211.142C220.344 211.559 218.041 213.219 210.517 218.005C202.992 222.792 188.784 224.656 174.567 202.617C161.518 182.372 157.101 160.03 159.394 148.141C162.875 149.413 166.449 150.419 170.086 151.151C171.264 151.391 172.361 151.578 173.397 151.72C175.281 151.995 179.028 152.184 180.367 152.263C182.786 160.219 185.606 190.276 203.736 186.689C215.096 184.498 226.097 180.762 236.434 175.587L243.745 204.695Z"
fill="#EFEFEF" />
<path
d="M182.19 235.419C173.399 239.29 161.011 242.443 143.661 243.145C139.591 243.314 135.239 243.335 130.604 243.207C116.422 226.736 127.239 208.994 131.291 197.62C135.333 186.237 131.452 185.837 139.118 166.427C139.962 164.432 140.937 162.495 142.037 160.628C143.313 178.955 150.542 199.521 160.584 216.996C166.821 227.854 173.96 233.555 182.19 235.419Z"
fill="#EFEFEF" />
<path
d="M247.806 212.563C247.806 212.563 244.495 222.162 228.02 224.754C211.544 227.356 208.43 232.16 200.325 234.389C193.756 236.201 187.723 236.68 182.189 235.419C173.961 233.554 166.82 227.854 160.582 216.994C150.542 199.519 143.312 178.954 142.035 160.626C144.068 157.04 146.35 153.599 148.862 150.326C151.548 147.041 153.762 144.581 155.565 142.724C157.974 141.561 176.527 138.375 179.456 138.836C179.456 138.836 178.241 166 191.415 183.35C192.842 185.224 190.328 181.75 191.415 183.35C196.568 190.94 201.268 191.967 205.641 191.967C210.728 191.967 228.322 187.274 237.801 178.803L247.806 212.563Z"
fill="#EFEFEF" />
<path
d="M172.12 132.518C175.968 135.806 184.695 141.313 189.95 139.195C196.239 136.656 197.994 131.494 199.156 131.682C200.314 131.878 202.895 131.696 203.218 130.486C203.544 129.288 201.246 125.063 201.851 120.545C201.907 120.125 201.954 119.718 201.977 119.317L201.974 119.305C201.991 119.21 202 119.113 202.003 119.016C202.008 118.97 202.008 118.923 202.004 118.878C202.002 118.862 202.003 118.846 202.005 118.83C202.005 118.77 202.009 118.703 202.012 118.636C202.018 118.153 202.018 117.439 201.946 116.589C201.917 116.193 201.871 115.759 201.805 115.298C201.736 114.779 201.624 114.228 201.49 113.665C201.481 113.625 201.472 113.584 201.462 113.545C201.428 113.405 201.401 113.27 201.363 113.127C201.298 112.877 201.222 112.629 201.138 112.376C201.078 112.178 201.006 111.984 200.93 111.795C200.899 111.706 200.861 111.612 200.823 111.518C200.756 111.345 200.683 111.169 200.604 110.999C200.591 110.961 200.576 110.924 200.556 110.889C200.552 110.896 200.555 110.907 200.545 110.921C200.45 111.279 200.324 111.629 200.168 111.967C200.126 112.077 200.067 112.199 200.007 112.319C199.784 112.767 199.521 113.194 199.222 113.594C199.177 113.664 199.124 113.729 199.067 113.801C199.014 113.866 198.957 113.938 198.9 114.011C198.786 114.155 198.66 114.302 198.526 114.444C198.514 114.464 198.497 114.474 198.483 114.494C198.293 114.709 198.092 114.914 197.882 115.107C197.809 115.189 197.726 115.253 197.646 115.33C197.643 115.335 197.637 115.338 197.63 115.339C197.474 115.485 197.299 115.631 197.117 115.771L197.108 115.786C197.021 115.859 196.927 115.926 196.832 115.994C196.419 116.313 195.988 116.605 195.539 116.872C195.384 116.971 195.217 117.059 195.043 117.156C194.962 117.203 194.887 117.243 194.799 117.285C194.718 117.332 194.633 117.386 194.546 117.428C194.5 117.452 194.452 117.474 194.403 117.494C194.275 117.57 194.135 117.629 193.992 117.694C193.85 117.761 193.707 117.827 193.557 117.888C193.414 117.955 193.271 118.021 193.114 118.078C192.72 118.238 192.304 118.387 191.87 118.532C191.627 118.613 191.377 118.689 191.124 118.772C190.157 119.052 189.176 119.282 188.184 119.456L187.539 119.573C185.56 119.913 183.632 120.496 181.798 121.307C181.527 121.46 181.255 121.62 180.968 121.781C180.194 122.228 179.456 122.734 178.76 123.296C175.807 125.766 173.521 128.937 172.12 132.518Z"
fill="#EFEFEF" />
<path
d="M204.009 121.675C203.127 122.996 201.337 123.354 200.009 122.476C199.529 122.159 199.155 121.705 198.936 121.173C198.767 120.769 199.368 120.431 199.54 120.84C199.956 121.974 201.218 122.557 202.358 122.143C202.787 121.987 203.158 121.701 203.416 121.326C203.671 120.967 204.267 121.314 204.009 121.675Z"
fill="#EFEFEF" />
<path
d="M184.081 94.6422C181.919 94.0122 179.661 93.7718 177.414 93.9321H177.325C169.115 94.1994 162.872 98.7918 158.965 105.352C156.742 108.715 155.1 112.426 154.107 116.329C152.082 123.391 150.044 136.836 140.286 136.485C139.855 136.469 139.855 137.136 140.286 137.151C146.52 137.375 149.707 131.99 151.703 126.806C153.018 123.388 153.869 119.812 154.886 116.325C154.612 117.782 154.425 119.253 154.324 120.731C153.227 136.518 141.722 139.165 141.722 139.165C147.169 142.793 153.022 145.779 159.162 148.062C162.716 149.373 166.37 150.407 170.086 151.152C171.264 151.392 172.361 151.579 173.397 151.721C176.404 152.219 179.457 152.396 182.501 152.245C187.417 145.772 185.599 139.189 183.531 133.707C186.625 139.62 188.24 145.086 184.995 151.689C184.807 152.072 185.384 152.411 185.573 152.025C187.525 148.304 188.076 144.012 187.127 139.922C185.762 134.352 180.664 129.864 181.083 124.103C181.488 122.569 182.841 121.459 185.795 120.901C185.929 120.875 186.063 120.857 186.206 120.829C200.861 118.423 200.558 110.893 200.558 110.874C201.672 113.545 202.158 116.433 201.977 119.319C207.537 105.094 194.97 97.7772 184.081 94.6422Z"
fill="#EFEFEF" />
<path d="M404.538 19H424.683V432.406H404.538V19Z" fill="#EFEFEF" />
<path d="M326.083 57.8023H435.971V88.2427H325.719L318.064 72.2439L326.083 57.8023Z"
fill="#EFEFEF" />
<path d="M336.289 158.029H446.177V188.47H335.925L328.27 172.471L336.289 158.029Z" fill="#EFEFEF" />
<path d="M463.673 99.9265H353.784V130.367H464.037L471.692 114.368L463.673 99.9265Z"
fill="#EFEFEF" />
<path d="M399.487 33.3626H429.732V37.3754H399.487V33.3626Z" fill="#EFEFEF" />
<path d="M399.487 24.3329H429.732V28.3457H399.487V24.3329Z" fill="#EFEFEF" />
<path d="M351.158 78.3862L360.43 69.1489L351.158 59.9106L341.886 69.1489L351.158 78.3862Z"
fill="#EFEFEF" />
<path d="M407.007 77.3849L418.694 81.9571L423.284 70.3138L411.596 65.7416L407.007 77.3849Z"
fill="#EFEFEF" />
<path d="M359.213 62.4609H382.374V64.4682H359.213V62.4609Z" fill="#EFEFEF" />
<path d="M372.786 104.716H374.801V127.791H372.786V104.716Z" fill="#EFEFEF" />
<path d="M359.213 70.4875H382.374V72.4948H359.213V70.4875Z" fill="#EFEFEF" />
<path d="M359.213 78.513H382.374V80.5203H359.213V78.513Z" fill="#EFEFEF" />
<path d="M389.127 123.698L399.079 116.073L391.426 106.157L381.473 113.782L389.127 123.698Z"
fill="#EFEFEF" />
<path d="M386.451 175.996L398.138 180.568L402.727 168.925L391.04 164.353L386.451 175.996Z"
fill="#EFEFEF" />
<path d="M355.277 165.723H376.271V170.703H355.277V165.723Z" fill="#EFEFEF" />
<path d="M408.262 112.934H429.256V117.914H408.262V112.934Z" fill="#EFEFEF" />
<path
d="M419.758 178.671C415.617 178.671 412.26 175.327 412.26 171.201C412.26 167.076 415.617 163.732 419.758 163.732C423.9 163.732 427.257 167.076 427.257 171.201C427.257 175.327 423.9 178.671 419.758 178.671Z"
fill="#EFEFEF" />
<path
d="M419.758 179.667C424.444 179.667 428.256 175.869 428.256 171.2C428.256 166.533 424.444 162.735 419.758 162.735C415.072 162.735 411.261 166.533 411.261 171.2C411.261 175.869 415.072 179.667 419.758 179.667ZM419.758 164.727C423.341 164.727 426.256 167.632 426.256 171.201C426.256 174.771 423.341 177.676 419.758 177.676C416.176 177.676 413.26 174.771 413.26 171.201C413.26 167.631 416.175 164.727 419.758 164.727Z"
fill="#EFEFEF" />
<path
d="M441.752 123.392C446.437 123.392 450.249 119.595 450.249 114.927C450.249 110.259 446.438 106.461 441.752 106.461C437.067 106.461 433.255 110.259 433.255 114.927C433.255 119.595 437.067 123.392 441.752 123.392ZM441.752 108.453C445.334 108.453 448.25 111.358 448.25 114.928C448.25 118.497 445.335 121.402 441.752 121.402C438.169 121.402 435.254 118.497 435.254 114.928C435.255 111.357 438.169 108.453 441.752 108.453Z"
fill="#EFEFEF" />
<path
d="M204.041 125.909C204.041 125.909 202.037 122.313 188.471 125.227L177.996 120.518L186.468 125.827C186.737 126.052 187.379 126.615 188.094 127.417C190.099 129.662 192.653 133.762 189.032 137.435L177.174 130.708L188.368 138.956L188.398 138.903C190.904 140.664 200.822 146.776 203.623 135.459C204.584 130.659 204.041 125.909 204.041 125.909Z"
fill="#EFEFEF" />
</svg>