<svg width="462" height="395" viewBox="0 0 462 395" fill="none" xmlns="http://www.w3.org/2000/svg">
<path d="M106.967 270.449H163.595C171.508 270.449 177.991 276.836 177.991 284.844V363.399C177.991 371.311 171.603 377.794 163.595 377.794H106.967C99.0547 377.794 92.572 371.407 92.572 363.399V284.844C92.572 276.836 99.0547 270.449 106.967 270.449Z" fill="#23286B"/>
<path d="M114.022 394.668C118.708 394.668 122.507 390.869 122.507 386.183C122.507 381.497 118.708 377.699 114.022 377.699C109.336 377.699 105.537 381.497 105.537 386.183C105.537 390.869 109.336 394.668 114.022 394.668Z" fill="url(#paint0_linear)"/>
<path d="M156.541 394.668C161.227 394.668 165.025 390.869 165.025 386.183C165.025 381.497 161.227 377.699 156.541 377.699C151.855 377.699 148.056 381.497 148.056 386.183C148.056 390.869 151.855 394.668 156.541 394.668Z" fill="url(#paint1_linear)"/>
<path d="M148.723 298.763C152.462 298.763 155.492 295.732 155.492 291.994C155.492 288.256 152.462 285.225 148.723 285.225C144.985 285.225 141.955 288.256 141.955 291.994C141.955 295.732 144.985 298.763 148.723 298.763Z" fill="url(#paint2_linear)"/>
<path d="M9.53668 366.354L0.384674 394.287L64.1627 394.477C64.1627 394.477 61.0167 387.518 50.0533 382.37C39.09 377.222 33.5607 366.354 33.5607 366.354H9.53668Z" fill="url(#paint3_linear)"/>
<path d="M32.226 366.354L23.074 394.287L86.852 394.573C86.852 394.573 83.6106 387.518 72.7426 382.37C61.8746 377.222 56.25 366.354 56.25 366.354H32.226Z" fill="#428DFC"/>
<path d="M6.29536 366.449C6.29536 366.449 4.00735 341.186 12.778 317.829C21.5487 294.473 23.7413 297.047 24.504 278.075C25.2667 259.104 21.2627 233.936 21.2627 233.936L53.7713 239.751C53.7713 239.751 56.3453 287.99 53.7713 300.002C51.1973 312.014 36.7067 366.449 36.7067 366.449H6.29536Z" fill="url(#paint4_linear)"/>
<path d="M21.072 230.885C21.072 230.885 20.0233 252.431 27.65 270.353C35.2767 288.276 28.6987 297.714 25.8387 312.681C22.9787 327.649 21.4533 352.912 28.0313 366.449L56.3453 366.354C56.3453 366.354 63.4953 311.633 63.4953 298.191C63.4953 284.749 58.7287 232.792 58.7287 232.792L21.072 230.885Z" fill="#23286B"/>
<path opacity="0.86" d="M33.7513 244.327C33.7513 244.232 33.656 244.232 33.5607 244.232C33.4653 244.232 33.4654 244.327 33.4654 244.423C33.4654 244.518 33.5607 244.518 33.656 244.518C33.7513 244.518 33.8467 244.423 33.7513 244.327ZM32.226 240.609C32.226 240.514 32.1307 240.514 32.0353 240.514C31.94 240.514 31.94 240.609 31.94 240.705C31.94 240.8 32.0353 240.8 32.1307 240.8C32.226 240.8 32.226 240.705 32.226 240.609ZM30.51 237.082L25.076 243.851C24.9807 243.851 24.8854 243.946 24.8854 244.041C24.8854 244.137 24.9807 244.232 25.076 244.232C25.1713 244.232 25.2667 244.137 25.2667 244.041C25.2667 243.946 25.1713 243.851 25.076 243.851L30.51 237.082ZM30.51 232.983C30.4147 232.983 30.3193 233.078 30.3193 233.173C30.3193 233.269 30.4147 233.364 30.51 233.364C30.6053 233.364 30.7007 233.269 30.7007 233.173C28.8893 231.648 26.1247 231.839 24.5993 233.65C23.074 235.461 23.2647 238.226 25.076 239.751L30.51 232.983ZM61.2074 238.417C61.112 238.321 60.9214 238.321 60.7307 238.417C60.6354 238.512 60.6354 238.703 60.7307 238.893C60.826 238.989 61.0167 238.989 61.2074 238.893C59.4914 237.368 56.822 237.559 55.2967 239.275C53.7713 240.991 53.962 243.66 55.678 245.185L61.2074 238.417ZM55.392 233.364C55.2967 233.269 55.106 233.269 54.9153 233.364C54.82 233.459 54.82 233.745 54.9153 233.841C55.0107 233.936 55.2967 233.936 55.392 233.841C53.676 232.315 51.0067 232.506 49.4813 234.222C47.956 235.938 48.1467 238.607 49.8627 240.133L55.392 233.364ZM32.3213 264.538C32.1307 264.538 32.0353 264.729 32.0353 264.919C32.0353 265.11 32.226 265.205 32.3213 265.205C32.512 265.205 32.6073 265.015 32.6073 264.824C32.7027 264.633 32.512 264.538 32.3213 264.538ZM31.8447 256.816C31.654 256.816 31.5587 257.007 31.5587 257.197C31.5587 257.388 31.7493 257.483 31.94 257.483C32.1307 257.483 32.226 257.293 32.226 257.102C32.1307 257.007 32.0353 256.816 31.8447 256.816ZM31.2727 249.189C31.082 249.189 30.9867 249.38 30.9867 249.571C30.9867 249.761 31.1773 249.857 31.2727 249.857C31.4633 249.857 31.5587 249.666 31.5587 249.571C31.654 249.285 31.4633 249.189 31.2727 249.189ZM30.7007 241.563C30.51 241.563 30.4147 241.753 30.4147 241.944C30.4147 242.135 30.6053 242.23 30.796 242.23C30.9867 242.23 31.082 242.039 31.082 241.849C31.082 241.658 30.8913 241.467 30.7007 241.563ZM47.4793 256.911C47.384 256.721 47.1933 256.721 47.0027 256.721C46.812 256.816 46.812 257.007 46.812 257.197C46.9073 257.388 47.098 257.388 47.2887 257.388C47.4793 257.197 47.5747 257.007 47.4793 256.911ZM44.0473 249.952C43.952 249.761 43.7613 249.761 43.5707 249.761C43.38 249.761 43.38 250.047 43.38 250.238C43.4753 250.429 43.666 250.429 43.8567 250.429C44.0473 250.333 44.1427 250.143 44.0473 249.952ZM40.6153 243.088C40.52 242.897 40.3293 242.897 40.1387 242.993C39.948 243.088 39.948 243.279 40.0433 243.469C40.1387 243.66 40.3293 243.66 40.4247 243.565C40.6153 243.469 40.7107 243.279 40.6153 243.088ZM22.788 244.423C22.5973 244.327 22.4067 244.423 22.4067 244.613C22.3113 244.804 22.4067 244.995 22.5973 244.995C22.788 245.09 22.8834 244.995 22.9787 244.804C23.074 244.709 22.9787 244.518 22.788 244.423ZM25.2667 237.177C25.076 237.082 24.8854 237.177 24.8854 237.368C24.79 237.559 24.8853 237.654 25.076 237.749C25.2667 237.845 25.4573 237.749 25.4573 237.559C25.5527 237.368 25.4573 237.177 25.2667 237.177ZM54.0574 253.384C53.962 253.289 53.7713 253.193 53.676 253.289C53.5807 253.384 53.4854 253.575 53.5807 253.67C53.676 253.765 53.8667 253.861 53.962 253.765C54.0573 253.67 54.1527 253.479 54.0574 253.384ZM50.4347 247.569C50.3393 247.473 50.1487 247.378 50.0533 247.473C49.958 247.569 49.8627 247.759 49.958 247.855C50.0533 247.95 50.244 248.045 50.3393 247.95C50.4347 247.855 50.53 247.664 50.4347 247.569ZM46.812 241.753C46.812 241.658 46.7167 241.658 46.7167 241.658C46.6213 241.658 46.526 241.658 46.4307 241.658C46.3353 241.753 46.24 241.944 46.3353 242.039C46.4307 242.135 46.6213 242.23 46.7167 242.135C46.812 242.135 46.812 242.039 46.812 241.944C46.812 241.849 46.812 241.753 46.812 241.753ZM25.362 257.96C25.1714 257.96 25.076 258.055 24.9807 258.151C24.9807 258.341 24.9807 258.437 25.1713 258.532C25.362 258.532 25.4573 258.437 25.5527 258.341C25.648 258.151 25.5527 258.055 25.362 257.96ZM26.9827 251.287C26.792 251.287 26.6967 251.382 26.6013 251.477C26.6013 251.668 26.6967 251.763 26.792 251.859C26.9827 251.859 27.078 251.763 27.1733 251.668C27.1733 251.477 27.078 251.382 26.9827 251.287ZM28.508 244.613C28.3173 244.613 28.222 244.709 28.1267 244.804C28.1267 244.899 28.1267 245.09 28.3173 245.09C28.508 245.09 28.6034 244.995 28.6987 244.899C28.6987 244.804 28.6033 244.709 28.508 244.613ZM30.0333 237.94C29.8427 237.94 29.7473 238.035 29.652 238.131C29.652 238.321 29.7473 238.417 29.8427 238.512C30.0333 238.512 30.1287 238.417 30.224 238.321C30.224 238.131 30.1287 237.94 30.0333 237.94ZM39.948 255.005C39.7573 255.005 39.662 255.195 39.7573 255.386C39.7573 255.577 39.948 255.672 40.0433 255.577C40.234 255.577 40.3293 255.386 40.3293 255.291C40.3293 255.1 40.1387 254.909 39.948 255.005ZM38.8993 248.236C38.7087 248.236 38.6133 248.427 38.7087 248.617C38.7087 248.808 38.8993 248.903 38.9947 248.808C39.1853 248.808 39.2807 248.617 39.1853 248.522C39.1853 248.331 38.9947 248.141 38.8993 248.236ZM37.7553 241.467C37.5647 241.467 37.4693 241.658 37.5647 241.753C37.5647 241.944 37.7553 242.039 37.8507 241.944C38.0413 241.944 38.1367 241.753 38.0413 241.658C38.0413 241.563 37.8507 241.467 37.7553 241.467ZM37.4693 242.421C37.374 242.421 37.2787 242.516 37.2787 242.611C37.2787 242.707 37.374 242.802 37.4693 242.802C37.5647 242.802 37.66 242.707 37.66 242.611C37.66 242.516 37.5647 242.421 37.4693 242.421ZM30.0333 238.512C29.938 238.512 29.8427 238.512 29.8427 238.607C29.8427 238.703 29.8427 238.798 29.938 238.798C30.0333 238.798 30.1287 238.798 30.1287 238.703C30.1287 238.703 30.0333 238.607 30.0333 238.512ZM56.4407 240.514C56.3454 240.419 56.25 240.419 56.1547 240.419C56.0593 240.514 56.0593 240.609 56.0593 240.705C56.1547 240.8 56.25 240.8 56.3453 240.8C56.536 240.705 56.536 240.609 56.4407 240.514ZM37.1833 243.851C37.088 243.851 36.9927 243.946 36.9927 244.041C36.9927 244.137 36.9927 244.232 37.088 244.232C37.1833 244.232 37.2787 244.232 37.2787 244.137C37.374 243.946 37.2787 243.851 37.1833 243.851ZM38.232 239.275C38.1367 239.275 38.0413 239.37 38.0413 239.465C38.0413 239.561 38.0413 239.656 38.1367 239.656C38.232 239.656 38.3273 239.656 38.3273 239.561C38.3273 239.465 38.3273 239.37 38.232 239.275ZM46.9073 241.753C46.9073 241.658 46.812 241.563 46.7167 241.563C46.6213 241.563 46.526 241.658 46.526 241.753C46.526 241.849 46.6213 241.944 46.7167 241.944H46.812C46.9073 241.944 46.9073 241.849 46.9073 241.753ZM29.4613 238.035C29.366 237.94 29.2707 238.035 29.1754 238.035C29.08 238.131 29.1754 238.226 29.1754 238.321C29.2707 238.417 29.366 238.321 29.4613 238.321C29.652 238.131 29.5567 238.035 29.4613 238.035ZM53.7713 260.82C53.5807 260.82 53.4853 261.011 53.4853 261.201C53.4853 261.392 53.676 261.487 53.8667 261.487C54.0573 261.487 54.1527 261.297 54.1527 261.106C54.0573 260.915 53.8667 260.725 53.7713 260.82ZM52.532 252.907C52.3413 252.907 52.246 253.098 52.246 253.289C52.246 253.479 52.4367 253.575 52.6274 253.575C52.818 253.575 52.9133 253.384 52.9133 253.193C52.818 253.003 52.7227 252.907 52.532 252.907ZM51.2927 245.09C51.102 245.09 51.0067 245.281 51.0067 245.471C51.0067 245.662 51.1973 245.757 51.388 245.757C51.5787 245.757 51.674 245.567 51.674 245.376C51.5787 245.185 51.4833 245.09 51.2927 245.09ZM26.22 246.615C26.0293 246.52 25.8387 246.52 25.7433 246.711C25.648 246.901 25.648 247.092 25.8387 247.187C26.0294 247.283 26.22 247.283 26.3154 247.092C26.4107 246.901 26.4107 246.711 26.22 246.615ZM30.8913 240.228C30.796 240.133 30.51 240.133 30.4147 240.323C30.3193 240.514 30.3193 240.705 30.51 240.8C30.7007 240.895 30.8913 240.895 30.9867 240.705C31.082 240.514 30.9867 240.323 30.8913 240.228ZM38.3273 256.625C38.1367 256.625 37.946 256.721 37.946 256.816C37.946 257.007 38.0413 257.197 38.1367 257.197C38.3273 257.197 38.518 257.102 38.518 256.911C38.6133 256.816 38.4227 256.625 38.3273 256.625ZM40.1387 248.903C39.948 248.903 39.7573 248.999 39.7573 249.094C39.7573 249.285 39.8527 249.475 39.948 249.475C40.1387 249.475 40.3293 249.38 40.3293 249.189C40.4247 249.094 40.3293 248.903 40.1387 248.903ZM42.0453 241.181C41.8547 241.181 41.664 241.277 41.664 241.467C41.664 241.658 41.7593 241.849 41.95 241.849C42.1407 241.849 42.3313 241.753 42.3313 241.658C42.3313 241.372 42.1407 241.277 42.0453 241.181ZM43.094 259.199C42.9033 259.199 42.7127 259.295 42.7127 259.485C42.7127 259.676 42.808 259.867 42.9987 259.867C43.1893 259.867 43.38 259.771 43.38 259.581C43.38 259.39 43.2847 259.199 43.094 259.199ZM44.6193 251.382C44.4287 251.382 44.238 251.477 44.238 251.668C44.238 251.859 44.3333 252.049 44.524 252.049C44.7147 252.049 44.9053 251.954 44.9053 251.763C44.9053 251.668 44.81 251.477 44.6193 251.382ZM46.1447 243.66C45.954 243.66 45.7633 243.755 45.7633 243.946C45.7633 244.137 45.8587 244.327 46.0493 244.327C46.24 244.327 46.4307 244.232 46.4307 244.041C46.4307 243.851 46.3353 243.755 46.1447 243.66ZM57.7753 247.187C57.5847 247.187 57.4893 247.378 57.4893 247.569C57.4893 247.759 57.68 247.855 57.8707 247.855C58.0614 247.855 58.1567 247.664 58.1567 247.473C58.1567 247.187 57.966 247.092 57.7753 247.187ZM29.938 249.285C29.7473 249.189 29.5567 249.189 29.4613 249.38C29.366 249.571 29.366 249.761 29.5567 249.857C29.7473 249.952 29.938 249.952 30.0333 249.761C30.1287 249.666 30.1287 249.38 29.938 249.285ZM34.3233 242.707C34.1327 242.611 33.942 242.611 33.8467 242.802C33.7513 242.993 33.7514 243.183 33.942 243.279C34.1327 243.374 34.3233 243.374 34.4187 243.183C34.514 243.088 34.4187 242.897 34.3233 242.707ZM42.9987 245.567C42.9033 245.471 42.7127 245.567 42.7127 245.662C42.6173 245.757 42.7127 245.948 42.808 245.948C42.9033 245.948 43.094 245.948 43.094 245.853C43.1893 245.757 43.1893 245.662 42.9987 245.567ZM45.382 240.133C45.2867 240.037 45.096 240.133 45.096 240.228C45.0007 240.323 45.096 240.514 45.1913 240.514C45.2867 240.609 45.4773 240.514 45.4773 240.419C45.5727 240.323 45.4773 240.228 45.382 240.133ZM55.5827 245.09C55.4873 245.09 55.2967 245.185 55.2967 245.376C55.2967 245.471 55.392 245.662 55.5827 245.662C55.678 245.662 55.8687 245.567 55.8687 245.376C55.7733 245.185 55.678 245.09 55.5827 245.09Z" fill="white"/>
<path d="M76.556 196.375C76.556 196.375 98.9593 220.875 103.726 222.782C108.493 224.689 122.697 225.451 126.892 230.504C131.087 235.557 116.501 241.944 112.973 240.895C109.446 239.847 98.6733 228.407 96.004 228.693C93.3347 228.979 70.4547 210.293 70.4547 210.293L76.556 196.375Z" fill="url(#paint5_linear)"/>
<path d="M139.571 223.926H124.795C120.695 223.926 117.263 227.263 117.263 231.457V270.449H120.123V231.457C120.123 228.883 122.221 226.786 124.795 226.786H139.571C142.145 226.786 144.243 228.883 144.243 231.457V270.449H147.103V231.457C147.103 227.263 143.766 223.926 139.571 223.926Z" fill="url(#paint6_linear)"/>
<path d="M79.2253 193.229L63.2093 218.587C63.2093 218.587 27.936 193.324 51.388 148.613C56.4407 150.996 61.112 154.047 65.3067 157.765C65.3067 157.669 62.6373 182.265 79.2253 193.229Z" fill="url(#paint7_linear)"/>
<path d="M71.2173 237.368C31.1773 247.283 5.62798 225.642 5.62798 225.642C4.29332 217.634 5.43732 204.764 11.348 198.377C17.2587 191.989 20.9767 187.223 26.6013 174.353C32.226 161.578 51.388 148.613 51.388 148.613C56.4407 150.996 61.112 154.047 65.3067 157.765C59.11 191.799 71.2173 237.368 71.2173 237.368Z" fill="url(#paint8_linear)"/>
<path d="M70.4546 210.293C70.4546 210.293 100.771 234.794 108.111 230.599C112.401 228.121 114.403 225.833 119.456 226.405C118.312 227.549 117.549 229.169 117.454 230.79C117.168 233.459 117.168 233.745 119.265 234.413C122.602 235.461 128.894 233.364 127.273 239.465C125.653 245.567 122.983 250.905 111.257 245.567C99.5313 240.228 97.9106 236.51 88.568 236.51C79.2253 236.51 61.5886 230.885 60.0633 229.265C58.538 227.644 70.4546 210.293 70.4546 210.293Z" fill="url(#paint9_linear)"/>
<path d="M147.579 330.127C150.439 329.174 153.585 330.699 154.539 333.655L159.782 349.48C160.735 352.34 159.21 355.486 156.255 356.439C153.395 357.393 150.249 355.867 149.295 352.912L144.052 337.087C143.194 334.227 144.719 331.081 147.579 330.127Z" stroke="url(#paint10_linear)" stroke-width="2.5" stroke-miterlimit="10"/>
<path d="M128.417 319.164L114.499 335.275L137.855 338.231L128.417 319.164Z" fill="#428DFC"/>
<path d="M65.3067 157.669C61.112 153.951 56.4407 150.901 51.388 148.517C51.388 148.517 57.2987 139.556 57.2033 137.745L58.1567 138.412C58.1567 138.507 58.0613 138.603 58.0613 138.603C57.8707 138.984 57.5847 139.365 57.2033 139.651L57.68 140.128C57.8707 140.223 57.966 140.414 58.1567 140.509L60.4447 142.225C62.542 143.941 65.0207 145.181 67.69 145.943C66.4507 149.757 65.5927 153.665 65.3067 157.669Z" fill="url(#paint11_linear)"/>
<path d="M74.268 145.657C79.6067 143.846 82.4667 138.793 83.6107 138.984C84.7547 139.175 87.2333 139.079 87.5193 137.935C87.9007 136.791 85.708 132.597 86.4707 128.211C86.566 127.83 86.566 127.449 86.6613 127.067V126.877C86.6613 126.591 86.7567 126.114 86.7567 125.542C83.706 126.877 80.9413 127.067 79.6067 126.305C75.984 124.112 75.412 126.591 71.5033 129.355C67.5947 132.12 64.4487 130.213 59.5867 128.783C54.7247 127.353 54.248 132.215 56.0593 134.027C57.8707 135.838 59.2053 136.696 57.966 138.603C57.7753 138.984 57.4893 139.365 57.108 139.651L57.5847 140.128C57.7753 140.223 57.8707 140.414 58.0613 140.509L60.3493 142.225C64.4487 145.371 69.3107 147.469 74.268 145.657Z" fill="#FFBEB6"/>
<path d="M108.874 118.392L46.1446 129.641L45.7633 127.353L106.681 116.485C107.73 116.295 108.683 116.962 108.874 118.011V118.392Z" fill="#E94A47"/>
<path d="M86.4707 120.013L45.7633 127.258L45.4773 125.542C43.7613 115.913 50.1487 106.761 59.7773 105.045L65.0207 104.092C75.0307 102.281 84.564 108.954 86.3753 118.964L86.4707 120.013Z" fill="url(#paint12_linear)"/>
<path d="M78.7487 139.842C79.13 141.653 80.846 142.797 82.6573 142.416C83.3247 142.321 83.8967 141.939 84.3733 141.463C84.7547 141.081 84.278 140.509 83.8967 140.891C82.9433 141.939 81.418 142.035 80.3693 141.081C79.988 140.7 79.702 140.223 79.6067 139.747C79.3207 139.27 78.558 139.365 78.7487 139.842Z" fill="#1C2868"/>
<path d="M75.2213 201.999L58.6333 232.697C58.6333 232.697 40.52 224.975 37.2787 197.709C34.0373 170.539 51.2927 148.517 51.2927 148.517C56.3453 150.901 61.0167 153.951 65.2113 157.669C65.3067 157.669 61.112 182.265 75.2213 201.999Z" fill="url(#paint13_linear)"/>
<path d="M99.6267 121.347C99.6267 120.871 98.864 120.871 98.864 121.347C99.2453 125.351 96.3853 128.211 92.4767 128.783C90.9513 128.974 89.3307 128.879 87.8053 128.497C91.0467 128.879 94.288 128.402 95.6227 125.733C97.2433 122.396 96.0993 120.68 96.0993 120.68C89.998 121.729 87.424 122.301 86.0893 122.396C84.7547 122.491 46.1447 129.546 46.1447 129.546C46.9073 132.311 48.242 134.885 50.0533 137.077C53.8667 141.272 57.2033 139.651 57.2033 139.651C57.2033 139.651 60.4447 137.649 56.9173 134.408C53.39 131.167 56.536 126.495 60.9213 129.26C65.3067 132.025 70.7407 131.548 73.41 128.402C76.0793 125.256 77.5093 125.637 81.132 126.781C81.7993 126.972 82.562 127.258 83.5153 127.544C87.0427 129.165 91.0467 130.404 94.9553 128.879C98.006 127.83 100.008 124.684 99.6267 121.347Z" fill="#23286B"/>
<path d="M250.444 264.061L240.053 294.568L181.137 246.139C181.137 246.139 188.954 242.802 202.587 246.806C216.219 250.81 233.093 249.285 233.093 249.285L250.444 264.061Z" fill="url(#paint14_linear)"/>
<path d="M358.266 139.937C358.266 139.937 316.796 165.201 299.445 179.119C282.095 193.038 233.093 249.285 233.093 249.285L256.641 269.4C256.641 269.4 274.849 259.771 279.997 250.905C285.336 241.658 296.395 239.179 304.021 227.835C311.648 216.49 307.453 211.247 317.94 204.478C328.427 197.709 355.597 184.077 379.049 178.452C402.501 172.827 421.281 157.383 421.663 148.327C421.567 148.231 369.611 133.169 358.266 139.937Z" fill="url(#paint15_linear)"/>
<path d="M300.589 165.01H410.509C424.618 165.01 435.963 176.45 435.963 190.464V348.813C435.963 362.922 424.523 374.267 410.509 374.267H300.589C286.48 374.267 275.135 362.827 275.135 348.813V190.464C275.04 176.45 286.48 165.01 300.589 165.01Z" fill="url(#paint16_linear)"/>
<path d="M401.929 268.733C406.409 271.307 407.935 276.931 405.361 281.412L391.347 305.722C388.773 310.203 383.148 311.728 378.667 309.154C374.187 306.58 372.661 300.955 375.235 296.475L389.249 272.165C391.823 267.684 397.448 266.159 401.929 268.733Z" stroke="url(#paint17_linear)" stroke-width="3" stroke-miterlimit="10"/>
<path d="M401.071 235.843C408.652 235.843 414.799 229.696 414.799 222.115C414.799 214.533 408.652 208.387 401.071 208.387C393.489 208.387 387.343 214.533 387.343 222.115C387.343 229.696 393.489 235.843 401.071 235.843Z" fill="#23286B"/>
<path d="M358.647 302.481L375.331 329.746L300.685 345.19C300.685 345.19 302.973 336.991 314.603 328.888C326.234 320.785 335.672 306.866 335.672 306.866L358.647 302.481Z" fill="url(#paint18_linear)"/>
<path d="M424.237 147.85C424.237 147.85 421.567 164.819 393.349 174.257C365.13 183.695 354.548 185.983 349.591 188.939C344.633 191.894 340.534 196.089 348.065 209.626C355.597 223.163 358.266 229.265 357.885 242.039C357.503 254.814 363.128 262.441 365.035 270.353C366.941 278.266 367.323 296.761 360.935 302.004L335.672 306.866C335.672 306.866 308.121 218.301 303.259 204.669C298.397 191.036 295.346 179.787 311.553 169.586C327.759 159.385 373.71 130.404 373.71 130.404L424.237 147.85Z" fill="url(#paint19_linear)"/>
<path opacity="0.86" d="M412.606 159.481C412.606 159.29 412.415 159.195 412.225 159.195C412.034 159.195 411.939 159.385 411.939 159.576C411.939 159.767 412.129 159.862 412.32 159.862C412.511 159.862 412.606 159.671 412.606 159.481ZM411.557 151.663C411.557 151.473 411.367 151.377 411.176 151.377C410.985 151.377 410.89 151.568 410.89 151.759C410.89 151.949 411.081 152.045 411.271 152.045C411.462 152.045 411.557 151.854 411.557 151.663ZM381.051 160.243C380.86 160.148 380.669 160.148 380.574 160.339C380.479 160.434 380.479 160.625 380.574 160.815C380.765 160.911 380.955 160.911 381.051 160.72C381.146 160.529 381.146 160.339 381.051 160.243ZM385.913 153.665C385.722 153.57 385.531 153.57 385.436 153.761C385.341 153.856 385.341 154.142 385.531 154.237C385.722 154.333 385.913 154.333 386.008 154.142C386.008 153.951 386.008 153.761 385.913 153.665ZM398.02 163.675C398.115 163.485 398.02 163.389 397.829 163.294C397.639 163.294 397.448 163.389 397.448 163.58C397.353 163.771 397.448 163.866 397.639 163.961C397.829 163.961 398.02 163.866 398.02 163.675ZM400.117 155.953C400.213 155.763 400.117 155.667 399.927 155.572C399.736 155.572 399.545 155.667 399.545 155.858C399.45 156.049 399.545 156.144 399.736 156.239C399.927 156.239 400.117 156.144 400.117 155.953ZM373.615 146.515C373.519 146.325 373.329 146.325 373.233 146.42C373.043 146.515 373.043 146.706 373.138 146.897C373.233 147.087 373.424 147.087 373.615 146.992C373.615 146.897 373.71 146.706 373.615 146.515ZM405.647 165.105C405.647 164.915 405.551 164.819 405.456 164.819C405.265 164.819 405.17 164.915 405.075 165.105C405.075 165.296 405.17 165.391 405.265 165.391C405.456 165.391 405.551 165.296 405.647 165.105ZM406.791 158.051C406.791 157.86 406.695 157.765 406.6 157.765C406.409 157.765 406.314 157.86 406.219 158.051C406.219 158.241 406.314 158.337 406.409 158.337C406.6 158.337 406.791 158.241 406.791 158.051ZM407.935 150.996C407.935 150.901 407.935 150.901 407.935 150.805C407.935 150.71 407.839 150.615 407.744 150.615C407.553 150.615 407.458 150.71 407.363 150.901C407.363 151.091 407.458 151.187 407.553 151.187C407.649 151.187 407.744 151.187 407.744 151.091C407.935 151.091 407.935 151.091 407.935 150.996ZM380.097 150.519C380.002 150.424 379.811 150.424 379.621 150.519C379.525 150.615 379.525 150.805 379.525 150.901C379.621 150.996 379.811 151.091 379.907 150.996C380.193 150.805 380.193 150.615 380.097 150.519ZM419.089 153.475C419.089 153.284 418.898 153.189 418.803 153.284C418.612 153.284 418.517 153.475 418.612 153.665C418.612 153.856 418.803 153.951 418.898 153.856C418.993 153.856 419.089 153.665 419.089 153.475ZM393.539 157.383C393.349 157.288 393.253 157.383 393.158 157.479C393.063 157.574 393.158 157.765 393.253 157.86C393.444 157.955 393.539 157.86 393.635 157.765C393.73 157.669 393.73 157.479 393.539 157.383ZM397.353 151.187C397.162 151.091 397.067 151.187 396.971 151.282C396.876 151.377 396.971 151.568 397.067 151.663C397.162 151.759 397.353 151.663 397.448 151.568C397.543 151.473 397.448 151.282 397.353 151.187ZM416.324 156.239C416.324 156.144 416.324 156.049 416.229 156.049C416.133 156.049 416.038 156.144 416.038 156.239C416.038 156.335 416.038 156.43 416.133 156.43C416.229 156.335 416.324 156.335 416.324 156.239ZM408.03 151.091C408.125 150.996 408.03 150.901 407.935 150.805C407.839 150.805 407.744 150.805 407.649 150.901C407.553 150.996 407.649 151.091 407.744 151.187H407.839C407.935 151.187 408.03 151.187 408.03 151.091ZM400.213 170.921C400.022 170.825 399.831 170.921 399.736 171.016C399.641 171.207 399.641 171.397 399.831 171.493C400.022 171.588 400.213 171.493 400.308 171.397C400.403 171.207 400.403 171.016 400.213 170.921ZM404.693 163.771C404.503 163.675 404.312 163.771 404.217 163.866C404.121 164.057 404.121 164.247 404.312 164.343C404.503 164.438 404.693 164.343 404.789 164.247C404.884 164.057 404.884 163.866 404.693 163.771ZM409.174 156.621C408.983 156.525 408.793 156.621 408.697 156.716C408.602 156.907 408.602 157.097 408.793 157.193C408.983 157.288 409.174 157.193 409.269 157.097C409.365 156.907 409.269 156.716 409.174 156.621ZM420.805 156.716C420.805 156.525 420.709 156.335 420.519 156.335C420.328 156.335 420.137 156.43 420.137 156.621C420.137 156.811 420.233 157.002 420.423 157.002C420.519 157.002 420.709 156.907 420.805 156.716ZM391.061 157.574C390.965 157.383 390.775 157.383 390.584 157.479C390.393 157.574 390.393 157.765 390.489 157.955C390.584 158.051 390.775 158.146 390.965 158.051C391.156 157.955 391.251 157.765 391.061 157.574ZM397.829 152.521C397.734 152.331 397.543 152.331 397.353 152.426C397.162 152.521 397.162 152.712 397.257 152.903C397.353 153.093 397.543 153.093 397.734 152.998C397.925 152.903 397.925 152.712 397.829 152.521ZM393.063 162.722C392.967 162.627 392.681 162.531 392.586 162.722C392.491 162.817 392.395 163.008 392.586 163.199C392.681 163.294 392.872 163.389 393.063 163.199C393.158 163.103 393.158 162.913 393.063 162.722ZM399.641 157.479C399.545 157.383 399.259 157.288 399.164 157.479C399.069 157.574 398.973 157.765 399.069 157.955C399.164 158.146 399.45 158.146 399.545 157.955C399.641 157.765 399.736 157.574 399.641 157.479ZM406.123 152.14C406.028 152.045 405.837 151.949 405.647 152.14C405.456 152.235 405.456 152.426 405.551 152.617C405.647 152.807 405.837 152.807 406.028 152.712C406.219 152.521 406.219 152.331 406.123 152.14ZM412.797 162.436C412.606 162.341 412.415 162.436 412.32 162.627C412.225 162.817 412.32 163.008 412.415 163.103C412.606 163.199 412.797 163.103 412.892 163.008C413.083 162.722 412.987 162.531 412.797 162.436ZM416.991 155.191C416.801 155.095 416.61 155.191 416.515 155.381C416.419 155.572 416.515 155.763 416.61 155.858C416.801 155.953 416.991 155.858 417.087 155.667C417.182 155.477 417.087 155.286 416.991 155.191ZM402.405 151.759C402.31 151.663 402.215 151.568 402.119 151.663C402.024 151.759 401.929 151.854 402.024 152.045C402.119 152.14 402.215 152.235 402.31 152.14C402.405 151.949 402.405 151.854 402.405 151.759ZM408.03 148.803C407.935 148.708 407.839 148.613 407.744 148.708C407.649 148.803 407.553 148.899 407.649 149.089C407.744 149.185 407.839 149.28 408.03 149.185C408.03 149.089 408.03 148.899 408.03 148.803ZM412.511 159.29C412.415 159.195 412.225 159.195 412.129 159.29C412.034 159.385 412.034 159.576 412.129 159.671C412.225 159.767 412.415 159.767 412.511 159.671C412.606 159.576 412.606 159.385 412.511 159.29ZM416.61 154.523C416.515 154.428 416.324 154.428 416.229 154.619C416.133 154.714 416.133 154.905 416.229 155C416.324 155.095 416.515 155.095 416.61 155C416.801 154.809 416.801 154.619 416.61 154.523Z" fill="white"/>
<path d="M330.047 66.8167L328.045 82.7373C328.045 82.7373 311.934 63.0987 305.737 62.908C299.541 62.7173 294.011 63.9567 289.626 60.8107C285.241 57.6647 283.429 53.8513 285.145 52.8027C286.861 51.754 289.34 51.468 292.2 50.5147C295.251 49.752 298.397 49.5613 301.543 50.1333C302.687 50.5147 303.831 50.9913 304.879 51.6587C307.167 52.898 310.409 54.7093 313.745 56.7113C314.889 57.3787 316.033 58.046 317.082 58.7133C323.851 62.908 330.047 66.8167 330.047 66.8167Z" fill="url(#paint20_linear)"/>
<path d="M391.919 63.9567C391.919 63.9567 383.053 78.5427 368.467 77.0173C353.881 75.492 330.047 66.8167 330.047 66.8167L326.615 94.082C326.615 94.082 335.005 104.95 343.299 103.997C351.593 103.043 357.885 104.569 363.128 108.001C368.371 111.433 384.769 120.108 398.115 107.429C411.462 94.7494 423.283 73.3947 418.898 56.33C418.898 56.33 407.553 51.468 391.919 63.9567Z" fill="url(#paint21_linear)"/>
<path d="M256.259 58.4273L276.851 29.446L314.603 75.492L294.011 104.569" fill="url(#paint22_linear)"/>
<path d="M317.177 58.904C314.889 59.9527 311.648 59.9527 310.313 59.19C308.121 57.8553 302.496 58.2367 299.827 58.7133C297.253 59.19 292.867 57.188 294.965 55.5673C296.871 54.1373 303.831 52.1353 304.879 51.754C307.167 52.9933 310.409 54.8047 313.745 56.8067C314.889 57.5693 316.033 58.2367 317.177 58.904Z" fill="#FFBEB6"/>
<path d="M256.259 58.4273L287.433 46.892L325.09 92.938L294.011 104.569" fill="url(#paint23_linear)"/>
<path d="M325.09 92.938L302.401 118.869L264.744 72.8227L287.433 46.892L325.09 92.938Z" fill="url(#paint24_linear)"/>
<path d="M347.97 105.331L302.401 118.869L264.744 72.8227L310.218 59.2853L347.97 105.331Z" fill="url(#paint25_linear)"/>
<path d="M339.962 102.471C339.962 102.471 332.907 101.518 326.043 93.7006C318.607 85.3113 315.843 74.5386 314.603 75.3966C313.364 76.2546 312.125 79.1146 314.031 84.358C315.938 89.6013 313.078 88.7433 308.216 86.646C303.354 84.5486 297.348 78.7333 293.63 82.2606C289.912 85.788 294.583 100.374 305.451 103.615C316.319 106.857 322.611 105.713 327.283 110.098C331.954 114.483 338.151 119.822 338.151 119.822L339.962 102.471Z" fill="#FFBEB6"/>
<path d="M410.89 53.47C410.89 53.47 435.677 75.1107 439.681 91.8893C443.685 108.668 448.642 117.248 453.313 123.159C457.985 129.069 462.561 141.463 461.321 150.996C461.321 150.996 415.847 174.543 381.146 122.491C381.146 122.491 392.967 97.228 391.823 63.8613L410.89 53.47Z" fill="url(#paint26_linear)"/>
<path d="M391.919 63.9567C391.919 63.9567 391.442 93.4147 388.296 99.3253C385.15 105.236 373.138 103.329 362.556 100.851C355.215 99.0393 347.97 96.7513 340.915 94.082L337.197 127.544C337.197 127.544 344.633 139.27 354.548 139.27C364.463 139.27 371.613 139.556 376.57 142.702C381.527 145.848 407.553 158.527 417.468 138.984C427.383 119.441 433.198 86.932 410.985 53.5653L391.919 63.9567Z" fill="#23286B"/>
<path d="M391.919 63.9567C392.3 55.8533 388.773 48.036 387.629 45.6527C389.821 45.8433 392.014 45.748 394.111 45.462C393.73 51.468 396.685 57.188 401.929 59.0947C398.878 61.2873 395.541 63.0033 391.919 63.9567Z" fill="url(#paint27_linear)"/>
<path d="M395.923 44.9854C395.923 44.9854 387.724 47.3687 380.193 43.5554C372.757 39.742 374.187 30.1133 374.187 30.1133C369.229 27.2533 371.803 25.8233 373.615 24.584C375.426 23.2493 377.142 21.6287 378.572 20.008C383.529 25.0607 388.773 28.3973 393.253 31.162C393.635 31.448 394.111 31.6387 394.588 31.9247L395.923 44.9854Z" fill="#FFBEB6"/>
<path d="M386.389 5.51734C386.389 5.51734 376.951 0.655341 372.757 0.369341C368.562 0.0833406 364.844 0.369331 371.517 10.9513C378.191 21.5333 386.675 26.872 393.349 31.0667C400.022 35.2613 419.279 42.316 425.571 42.316C431.863 42.316 429.48 36.1193 422.044 31.448C414.608 26.7767 394.588 13.9067 386.389 5.51734Z" fill="url(#paint28_linear)"/>
<path d="M381.623 7.70999C381.623 7.70999 395.065 -1.34667 407.077 3.03866C419.089 7.424 420.233 20.866 416.896 30.6853C416.896 30.6853 408.316 31.2573 398.973 24.7747C389.631 18.292 382.671 10.1887 381.623 7.70999Z" fill="url(#paint29_linear)"/>
<path d="M316.129 394.573C321.71 394.573 326.234 390.048 326.234 384.467C326.234 378.886 321.71 374.362 316.129 374.362C310.548 374.362 306.023 378.886 306.023 384.467C306.023 390.048 310.548 394.573 316.129 394.573Z" fill="url(#paint30_linear)"/>
<path d="M394.874 394.573C400.455 394.573 404.979 390.048 404.979 384.467C404.979 378.886 400.455 374.362 394.874 374.362C389.293 374.362 384.769 378.886 384.769 384.467C384.769 390.048 389.293 394.573 394.874 394.573Z" fill="url(#paint31_linear)"/>
<path d="M411.653 317.162L386.961 332.797L416.419 346.048L411.653 317.162Z" fill="url(#paint32_linear)"/>
<path d="M372.566 33.6406C372.947 35.452 374.663 36.596 376.475 36.2146C377.142 36.1193 377.714 35.738 378.191 35.2613C378.572 34.88 378.095 34.308 377.714 34.6893C376.761 35.738 375.235 35.8333 374.187 34.88C373.805 34.4987 373.519 34.022 373.424 33.5453C373.233 32.9733 372.471 33.164 372.566 33.6406Z" fill="#1C2868"/>
<path d="M427.573 55.3767C417.945 48.4173 415.371 42.2207 414.703 40.028C406.886 37.6447 397.639 33.8313 393.349 31.162C392.3 30.4947 391.251 29.8273 390.107 29.0647C390.679 29.8273 391.156 30.6853 391.633 31.5433C391.633 31.5433 391.633 31.5433 391.633 31.6387C391.633 31.734 391.728 31.8293 391.728 31.9247C391.919 32.306 392.109 32.6873 392.3 33.0687C395.923 41.458 388.773 53.0887 396.399 59.8573C398.973 62.1453 402.024 61.9547 405.17 61.5733C407.744 61.2873 410.318 61.2873 412.797 61.5733C417.277 63.2893 421.281 65.9587 424.618 69.3907C429.766 74.5387 433.198 78.638 433.198 78.638C433.198 78.638 439.585 64.052 427.573 55.3767ZM402.024 61.0013C392.586 59.9527 393.444 50.4193 394.207 43.46C394.302 42.4113 394.397 41.458 394.397 40.4093C394.493 41.5533 394.397 42.6973 394.207 43.8413C392.967 51.5633 397.257 59.19 404.979 59.762C406.695 59.8573 408.507 60.1433 410.223 60.62C407.458 60.8107 404.884 61.3827 402.024 61.0013Z" fill="#E94A47"/>
<defs>
<linearGradient id="paint0_linear" x1="111.173" y1="386.189" x2="127.047" y2="386.253" gradientUnits="userSpaceOnUse">
<stop stop-color="#A1C3FC"/>
<stop offset="0.6955" stop-color="#81AEF2"/>
<stop offset="1" stop-color="#78A9EF"/>
</linearGradient>
<linearGradient id="paint1_linear" x1="153.676" y1="386.189" x2="169.55" y2="386.253" gradientUnits="userSpaceOnUse">
<stop stop-color="#A1C3FC"/>
<stop offset="0.6955" stop-color="#81AEF2"/>
<stop offset="1" stop-color="#78A9EF"/>
</linearGradient>
<linearGradient id="paint2_linear" x1="141.942" y1="292.022" x2="155.484" y2="292.022" gradientUnits="userSpaceOnUse">
<stop stop-color="#A1C3FC"/>
<stop offset="0.6955" stop-color="#81AEF2"/>
<stop offset="1" stop-color="#78A9EF"/>
</linearGradient>
<linearGradient id="paint3_linear" x1="-30.7497" y1="354.918" x2="26.7108" y2="385.467" gradientUnits="userSpaceOnUse">
<stop offset="0.1291" stop-color="#428DFC"/>
<stop offset="0.9987" stop-color="#1D72D8"/>
</linearGradient>
<linearGradient id="paint4_linear" x1="-24.7602" y1="237.298" x2="27.0561" y2="299.627" gradientUnits="userSpaceOnUse">
<stop stop-color="#23286B"/>
<stop offset="1" stop-color="#151A4F"/>
</linearGradient>
<linearGradient id="paint5_linear" x1="107.298" y1="195.743" x2="94.3352" y2="236.53" gradientUnits="userSpaceOnUse">
<stop stop-color="#FFBEB6"/>
<stop offset="1" stop-color="#F29B94"/>
</linearGradient>
<linearGradient id="paint6_linear" x1="117.368" y1="247.202" x2="147.093" y2="247.202" gradientUnits="userSpaceOnUse">
<stop stop-color="#A1C3FC"/>
<stop offset="0.6955" stop-color="#81AEF2"/>
<stop offset="1" stop-color="#78A9EF"/>
</linearGradient>
<linearGradient id="paint7_linear" x1="84.4945" y1="136.751" x2="56.0378" y2="187.299" gradientUnits="userSpaceOnUse">
<stop stop-color="#A1C3FC"/>
<stop offset="0.6955" stop-color="#81AEF2"/>
<stop offset="1" stop-color="#78A9EF"/>
</linearGradient>
<linearGradient id="paint8_linear" x1="35.8795" y1="169.311" x2="39.2493" y2="255.805" gradientUnits="userSpaceOnUse">
<stop stop-color="#A1C3FC"/>
<stop offset="0.6955" stop-color="#81AEF2"/>
<stop offset="1" stop-color="#78A9EF"/>
</linearGradient>
<linearGradient id="paint9_linear" x1="89.7253" y1="227.77" x2="38.1805" y2="164.086" gradientUnits="userSpaceOnUse">
<stop stop-color="#FFBEB6"/>
<stop offset="1" stop-color="#F29B94"/>
</linearGradient>
<linearGradient id="paint10_linear" x1="152.56" y1="328.793" x2="151.319" y2="357.736" gradientUnits="userSpaceOnUse">
<stop stop-color="#E94A47"/>
<stop offset="0.8467" stop-color="#A74A47"/>
</linearGradient>
<linearGradient id="paint11_linear" x1="54.2201" y1="158.842" x2="67.8025" y2="137.351" gradientUnits="userSpaceOnUse">
<stop stop-color="#FFBEB6"/>
<stop offset="1" stop-color="#F29B94"/>
</linearGradient>
<linearGradient id="paint12_linear" x1="64.9201" y1="119.993" x2="90.3597" y2="151.841" gradientUnits="userSpaceOnUse">
<stop stop-color="#E94A47"/>
<stop offset="0.8467" stop-color="#A74A47"/>
</linearGradient>
<linearGradient id="paint13_linear" x1="55.4484" y1="196.656" x2="83.9051" y2="329.953" gradientUnits="userSpaceOnUse">
<stop stop-color="#A1C3FC"/>
<stop offset="0.6955" stop-color="#81AEF2"/>
<stop offset="1" stop-color="#78A9EF"/>
</linearGradient>
<linearGradient id="paint14_linear" x1="205.644" y1="247.527" x2="253.092" y2="284.938" gradientUnits="userSpaceOnUse">
<stop stop-color="#23286B"/>
<stop offset="1" stop-color="#151A4F"/>
</linearGradient>
<linearGradient id="paint15_linear" x1="170.467" y1="175.096" x2="279.961" y2="196.539" gradientUnits="userSpaceOnUse">
<stop offset="0.1291" stop-color="#428DFC"/>
<stop offset="0.6452" stop-color="#2C7DE7"/>
<stop offset="0.9987" stop-color="#1D72D8"/>
</linearGradient>
<linearGradient id="paint16_linear" x1="366.08" y1="318.576" x2="312.866" y2="72.3805" gradientUnits="userSpaceOnUse">
<stop offset="0.08983" stop-color="#EEEEEE"/>
<stop offset="0.8178" stop-color="#D6D7D8"/>
</linearGradient>
<linearGradient id="paint17_linear" x1="394.279" y1="309.875" x2="386.232" y2="267.962" gradientUnits="userSpaceOnUse">
<stop stop-color="#A1C3FC"/>
<stop offset="0.6955" stop-color="#81AEF2"/>
<stop offset="1" stop-color="#78A9EF"/>
</linearGradient>
<linearGradient id="paint18_linear" x1="308.22" y1="317.74" x2="373.916" y2="336.445" gradientUnits="userSpaceOnUse">
<stop stop-color="#23286B"/>
<stop offset="1" stop-color="#151A4F"/>
</linearGradient>
<linearGradient id="paint19_linear" x1="353.455" y1="212.294" x2="398.165" y2="155.266" gradientUnits="userSpaceOnUse">
<stop offset="0.1291" stop-color="#428DFC"/>
<stop offset="0.6452" stop-color="#2C7DE7"/>
<stop offset="0.9987" stop-color="#1D72D8"/>
</linearGradient>
<linearGradient id="paint20_linear" x1="321.533" y1="68.0641" x2="278.219" y2="58.2321" gradientUnits="userSpaceOnUse">
<stop stop-color="#FFBEB6"/>
<stop offset="1" stop-color="#F29B94"/>
</linearGradient>
<linearGradient id="paint21_linear" x1="368.317" y1="49.8526" x2="379.719" y2="113.704" gradientUnits="userSpaceOnUse">
<stop stop-color="#23286B"/>
<stop offset="1" stop-color="#151A4F"/>
</linearGradient>
<linearGradient id="paint22_linear" x1="224.414" y1="-17.8487" x2="261.238" y2="33.3363" gradientUnits="userSpaceOnUse">
<stop stop-color="#A1C3FC"/>
<stop offset="0.6955" stop-color="#81AEF2"/>
<stop offset="1" stop-color="#78A9EF"/>
</linearGradient>
<linearGradient id="paint23_linear" x1="280.297" y1="60.6045" x2="258.857" y2="29.5163" gradientUnits="userSpaceOnUse">
<stop stop-color="#A1C3FC"/>
<stop offset="0.6955" stop-color="#81AEF2"/>
<stop offset="1" stop-color="#78A9EF"/>
</linearGradient>
<linearGradient id="paint24_linear" x1="256.291" y1="36.8753" x2="308.856" y2="99.4688" gradientUnits="userSpaceOnUse">
<stop stop-color="#A1C3FC"/>
<stop offset="0.4284" stop-color="#8DB6F6"/>
<stop offset="0.6955" stop-color="#81AEF2"/>
<stop offset="1" stop-color="#78A9EF"/>
</linearGradient>
<linearGradient id="paint25_linear" x1="303.202" y1="84.1418" x2="366.57" y2="184.476" gradientUnits="userSpaceOnUse">
<stop stop-color="#A1C3FC"/>
<stop offset="0.6955" stop-color="#81AEF2"/>
<stop offset="1" stop-color="#78A9EF"/>
</linearGradient>
<linearGradient id="paint26_linear" x1="442.576" y1="79.5522" x2="396.683" y2="159.937" gradientUnits="userSpaceOnUse">
<stop stop-color="#23286B"/>
<stop offset="1" stop-color="#151A4F"/>
</linearGradient>
<linearGradient id="paint27_linear" x1="396.43" y1="60.4335" x2="386.178" y2="43.3478" gradientUnits="userSpaceOnUse">
<stop stop-color="#FFBEB6"/>
<stop offset="1" stop-color="#F29B94"/>
</linearGradient>
<linearGradient id="paint28_linear" x1="371.51" y1="41.8965" x2="408.981" y2="13.3202" gradientUnits="userSpaceOnUse">
<stop stop-color="#23286B"/>
<stop offset="1" stop-color="#151A4F"/>
</linearGradient>
<linearGradient id="paint29_linear" x1="397.865" y1="20.6991" x2="435.929" y2="-22.0129" gradientUnits="userSpaceOnUse">
<stop stop-color="#23286B"/>
<stop offset="1" stop-color="#151A4F"/>
</linearGradient>
<linearGradient id="paint30_linear" x1="319.57" y1="384.5" x2="300.499" y2="384.5" gradientUnits="userSpaceOnUse">
<stop stop-color="#23286B"/>
<stop offset="0.4316" stop-color="#1D225F"/>
<stop offset="1" stop-color="#151A4F"/>
</linearGradient>
<linearGradient id="paint31_linear" x1="398.296" y1="384.5" x2="379.226" y2="384.5" gradientUnits="userSpaceOnUse">
<stop stop-color="#23286B"/>
<stop offset="0.4316" stop-color="#1D225F"/>
<stop offset="1" stop-color="#151A4F"/>
</linearGradient>
<linearGradient id="paint32_linear" x1="395.361" y1="313.78" x2="427.371" y2="404.727" gradientUnits="userSpaceOnUse">
<stop stop-color="#A1C3FC"/>
<stop offset="0.6955" stop-color="#81AEF2"/>
<stop offset="1" stop-color="#78A9EF"/>
</linearGradient>
</defs>
</svg>
