
<svg width="116" height="54" viewBox="0 0 116 54" fill="none" xmlns="http://www.w3.org/2000/svg">
    <rect width="116" height="54" rx="10" fill="#113B92" />
    <path d="M33.816 25.016C33.816 24.504 33.9067 24.0507 34.088 23.656C34.2693 23.2613 34.52 22.9253 34.84 22.648C35.1707 22.3707 35.5547 22.1627 35.992 22.024C36.44 21.8747 36.92 21.8 37.432 21.8C38.3813 21.8 39.1867 22.04 39.848 22.52C40.52 23 40.9573 23.704 41.16 24.632L39.128 25.448C39.0107 24.936 38.808 24.5733 38.52 24.36C38.232 24.1467 37.864 24.04 37.416 24.04C36.9573 24.04 36.616 24.136 36.392 24.328C36.168 24.52 36.056 24.7547 36.056 25.032C36.056 25.2347 36.104 25.4053 36.2 25.544C36.3067 25.672 36.4507 25.7893 36.632 25.896C36.8133 25.992 37.0267 26.0827 37.272 26.168L38.104 26.44C38.488 26.568 38.856 26.7173 39.208 26.888C39.56 27.048 39.8693 27.256 40.136 27.512C40.4133 27.7573 40.632 28.0613 40.792 28.424C40.9627 28.7867 41.048 29.2293 41.048 29.752C41.048 30.2747 40.952 30.7387 40.76 31.144C40.5787 31.5493 40.328 31.8907 40.008 32.168C39.688 32.4347 39.304 32.6427 38.856 32.792C38.4187 32.9307 37.944 33 37.432 33C36.9947 33 36.5733 32.9467 36.168 32.84C35.7733 32.7333 35.4053 32.568 35.064 32.344C34.7333 32.1093 34.4453 31.816 34.2 31.464C33.9653 31.1013 33.7947 30.6693 33.688 30.168L35.688 29.304C35.912 30.2747 36.4987 30.76 37.448 30.76C37.8853 30.76 38.2213 30.6693 38.456 30.488C38.6907 30.3067 38.808 30.0613 38.808 29.752C38.808 29.5493 38.7547 29.3787 38.648 29.24C38.552 29.0907 38.4133 28.968 38.232 28.872C38.0507 28.7653 37.8427 28.6747 37.608 28.6L36.824 28.36C36.472 28.2533 36.1147 28.12 35.752 27.96C35.4 27.7893 35.08 27.576 34.792 27.32C34.504 27.064 34.2693 26.7493 34.088 26.376C33.9067 26.0027 33.816 25.5493 33.816 25.016ZM41.9633 29C41.9633 28.4133 42.0593 27.864 42.2513 27.352C42.4433 26.84 42.7153 26.3973 43.0673 26.024C43.4193 25.64 43.8459 25.3413 44.3473 25.128C44.8593 24.9147 45.4299 24.808 46.0593 24.808C46.6673 24.808 47.2166 24.9093 47.7073 25.112C48.1979 25.3147 48.6139 25.6027 48.9553 25.976C49.2966 26.3387 49.5579 26.7867 49.7393 27.32C49.9206 27.8427 50.0113 28.424 50.0113 29.064V29.64H44.1233L44.1393 29.672C44.2033 29.9387 44.3046 30.168 44.4433 30.36C44.5926 30.552 44.7633 30.712 44.9553 30.84C45.1473 30.968 45.3553 31.064 45.5793 31.128C45.8139 31.1813 46.0486 31.208 46.2833 31.208C46.7633 31.208 47.1899 31.1333 47.5633 30.984C47.9473 30.8347 48.2779 30.6373 48.5553 30.392L49.4353 32.136C49.1046 32.4133 48.6833 32.6587 48.1713 32.872C47.6593 33.0853 47.0193 33.192 46.2513 33.192C45.5793 33.192 44.9766 33.0853 44.4433 32.872C43.9099 32.6587 43.4566 32.3653 43.0833 31.992C42.7206 31.6187 42.4433 31.176 42.2513 30.664C42.0593 30.152 41.9633 29.5973 41.9633 29ZM47.7073 28.104C47.6539 27.6667 47.4833 27.3093 47.1953 27.032C46.9073 26.744 46.5073 26.6 45.9953 26.6C45.4833 26.6 45.0673 26.7333 44.7473 27C44.4273 27.256 44.2139 27.624 44.1073 28.104H47.7073ZM56.0383 29.448L54.0543 29.688C53.7236 29.7413 53.4729 29.848 53.3023 30.008C53.1423 30.1573 53.0623 30.344 53.0623 30.568C53.0623 30.824 53.1583 31.032 53.3503 31.192C53.5423 31.3413 53.8249 31.416 54.1983 31.416C54.4756 31.416 54.7263 31.3733 54.9503 31.288C55.1849 31.192 55.3823 31.0693 55.5423 30.92C55.7023 30.7707 55.8249 30.6 55.9103 30.408C55.9956 30.2053 56.0383 29.992 56.0383 29.768V29.448ZM51.0783 26.632C51.3449 26.024 51.7876 25.5707 52.4062 25.272C53.0249 24.9733 53.7716 24.824 54.6463 24.824C55.8196 24.824 56.6943 25.0853 57.2703 25.608C57.8569 26.1307 58.1503 26.952 58.1503 28.072V33.016H56.0383V31.928C55.8249 32.248 55.5156 32.536 55.1102 32.792C54.7156 33.048 54.2036 33.176 53.5743 33.176C53.1796 33.176 52.8169 33.1173 52.4863 33C52.1556 32.872 51.8676 32.7013 51.6223 32.488C51.3876 32.264 51.2009 32.0027 51.0623 31.704C50.9343 31.3947 50.8703 31.0533 50.8703 30.68C50.8703 30.3173 50.9343 29.992 51.0623 29.704C51.1903 29.4053 51.3663 29.1493 51.5903 28.936C51.8249 28.7227 52.0969 28.552 52.4062 28.424C52.7156 28.2853 53.0569 28.2 53.4303 28.168L55.6223 27.976C55.8996 27.944 56.0383 27.8373 56.0383 27.656V27.528C56.0383 27.2933 55.9263 27.1013 55.7023 26.952C55.4783 26.8027 55.1263 26.728 54.6463 26.728C54.4329 26.728 54.2249 26.7493 54.0223 26.792C53.8196 26.824 53.6276 26.8827 53.4463 26.968C53.2649 27.0427 53.1049 27.144 52.9663 27.272C52.8276 27.4 52.7209 27.56 52.6463 27.752L51.0783 26.632ZM61.9756 26.312C62.189 25.8427 62.477 25.4747 62.8396 25.208C63.213 24.9413 63.6823 24.808 64.2476 24.808C64.397 24.808 64.5303 24.8187 64.6476 24.84C64.7756 24.8613 64.9036 24.888 65.0316 24.92V27.192C64.8823 27.1387 64.7276 27.1067 64.5676 27.096C64.4076 27.0747 64.2423 27.064 64.0716 27.064C63.3676 27.064 62.8556 27.2613 62.5356 27.656C62.2156 28.04 62.0556 28.616 62.0556 29.384V33H59.9436V25H61.9756V26.312ZM65.3226 29C65.3226 28.3707 65.4293 27.8 65.6426 27.288C65.856 26.7653 66.1493 26.3227 66.5226 25.96C66.9066 25.5867 67.36 25.304 67.8826 25.112C68.4053 24.9093 68.976 24.808 69.5946 24.808C70.2346 24.808 70.8106 24.9147 71.3226 25.128C71.8346 25.3307 72.272 25.6133 72.6346 25.976L71.4346 27.672C71.2106 27.448 70.9493 27.2613 70.6506 27.112C70.352 26.952 70 26.872 69.5946 26.872C69.296 26.872 69.0186 26.9253 68.7626 27.032C68.5066 27.128 68.2826 27.272 68.0906 27.464C67.9093 27.6453 67.7653 27.8693 67.6586 28.136C67.552 28.392 67.4986 28.68 67.4986 29C67.4986 29.32 67.552 29.6133 67.6586 29.88C67.7653 30.136 67.9093 30.36 68.0906 30.552C68.2826 30.7333 68.5066 30.8773 68.7626 30.984C69.0186 31.08 69.296 31.128 69.5946 31.128C70 31.128 70.3573 31.048 70.6666 30.888C70.9866 30.728 71.2586 30.536 71.4826 30.312L72.6506 32.008C72.3093 32.3493 71.8773 32.632 71.3546 32.856C70.832 33.08 70.2346 33.192 69.5626 33.192C68.9546 33.192 68.3893 33.096 67.8666 32.904C67.344 32.7013 66.896 32.4187 66.5226 32.056C66.1493 31.6827 65.856 31.24 65.6426 30.728C65.4293 30.216 65.3226 29.64 65.3226 29ZM75.9619 21.8V26.152C76.2285 25.7467 76.5645 25.4213 76.9699 25.176C77.3859 24.9307 77.8925 24.808 78.4899 24.808C79.4285 24.808 80.1325 25.096 80.6019 25.672C81.0819 26.2373 81.3219 27.0267 81.3219 28.04V33H79.1619V28.568C79.1619 27.992 79.0339 27.56 78.7779 27.272C78.5325 26.984 78.1752 26.84 77.7059 26.84C77.0979 26.84 76.6552 27.0533 76.3779 27.48C76.1005 27.896 75.9619 28.4613 75.9619 29.176V33H73.8499V21.8H75.9619Z" fill="white" />
</svg>