<svg width="151" height="37" viewBox="0 0 151 37" fill="none" xmlns="http://www.w3.org/2000/svg">
    <path d="M8.416 21.8V24.04H3.424V26.28H8.416V28.52H3.424V33H1.184V21.8H8.416ZM17.2255 25V33H15.1775V31.784C14.9002 32.1893 14.5588 32.5253 14.1535 32.792C13.7482 33.0587 13.2415 33.192 12.6335 33.192C11.7055 33.192 11.0122 32.904 10.5535 32.328C10.0948 31.7413 9.8655 30.9573 9.8655 29.976V25H12.0255V29.448C12.0255 30.024 12.1322 30.456 12.3455 30.744C12.5588 31.0213 12.9002 31.16 13.3695 31.16C13.9668 31.16 14.4042 30.9467 14.6815 30.52C14.9588 30.0827 15.0975 29.5173 15.0975 28.824V25H17.2255ZM21.2435 21.8V33H19.1155V21.8H21.2435ZM25.1963 21.8V26.152C25.4629 25.7467 25.7989 25.4213 26.2043 25.176C26.6203 24.9307 27.1269 24.808 27.7243 24.808C28.6629 24.808 29.3669 25.096 29.8363 25.672C30.3163 26.2373 30.5563 27.0267 30.5563 28.04V33H28.3963V28.568C28.3963 27.992 28.2683 27.56 28.0123 27.272C27.7669 26.984 27.4096 26.84 26.9403 26.84C26.3323 26.84 25.8896 27.0533 25.6123 27.48C25.3349 27.896 25.1963 28.4613 25.1963 29.176V33H23.0843V21.8H25.1963ZM37.0851 29.448L35.1011 29.688C34.7705 29.7413 34.5198 29.848 34.3491 30.008C34.1891 30.1573 34.1091 30.344 34.1091 30.568C34.1091 30.824 34.2051 31.032 34.3971 31.192C34.5891 31.3413 34.8718 31.416 35.2451 31.416C35.5225 31.416 35.7731 31.3733 35.9971 31.288C36.2318 31.192 36.4291 31.0693 36.5891 30.92C36.7491 30.7707 36.8718 30.6 36.9571 30.408C37.0425 30.2053 37.0851 29.992 37.0851 29.768V29.448ZM32.1251 26.632C32.3918 26.024 32.8345 25.5707 33.4531 25.272C34.0718 24.9733 34.8185 24.824 35.6931 24.824C36.8665 24.824 37.7411 25.0853 38.3171 25.608C38.9038 26.1307 39.1971 26.952 39.1971 28.072V33.016H37.0851V31.928C36.8718 32.248 36.5625 32.536 36.1571 32.792C35.7625 33.048 35.2505 33.176 34.6211 33.176C34.2265 33.176 33.8638 33.1173 33.5331 33C33.2025 32.872 32.9145 32.7013 32.6691 32.488C32.4345 32.264 32.2478 32.0027 32.1091 31.704C31.9811 31.3947 31.9171 31.0533 31.9171 30.68C31.9171 30.3173 31.9811 29.992 32.1091 29.704C32.2371 29.4053 32.4131 29.1493 32.6371 28.936C32.8718 28.7227 33.1438 28.552 33.4531 28.424C33.7625 28.2853 34.1038 28.2 34.4771 28.168L36.6691 27.976C36.9465 27.944 37.0851 27.8373 37.0851 27.656V27.528C37.0851 27.2933 36.9731 27.1013 36.7491 26.952C36.5251 26.8027 36.1731 26.728 35.6931 26.728C35.4798 26.728 35.2718 26.7493 35.0691 26.792C34.8665 26.824 34.6745 26.8827 34.4931 26.968C34.3118 27.0427 34.1518 27.144 34.0131 27.272C33.8745 27.4 33.7678 27.56 33.6931 27.752L32.1251 26.632ZM48.0145 26.296C48.2598 25.8587 48.6012 25.5013 49.0385 25.224C49.4758 24.9467 50.0305 24.808 50.7025 24.808C51.6412 24.808 52.3772 25.1013 52.9105 25.688C53.4545 26.2747 53.7265 27.0907 53.7265 28.136V33H51.5985V28.568C51.5985 27.416 51.1185 26.84 50.1585 26.84C49.8385 26.84 49.5665 26.8987 49.3425 27.016C49.1185 27.1333 48.9372 27.2987 48.7985 27.512C48.6598 27.7147 48.5585 27.96 48.4945 28.248C48.4305 28.5253 48.3985 28.8347 48.3985 29.176V33H46.2865V28.568C46.2865 27.416 45.8012 26.84 44.8305 26.84C44.5105 26.84 44.2385 26.8987 44.0145 27.016C43.8012 27.1333 43.6252 27.2987 43.4865 27.512C43.3478 27.7147 43.2465 27.96 43.1825 28.248C43.1292 28.5253 43.1025 28.8347 43.1025 29.176V33H40.9905V25H43.0385V26.168C43.2838 25.784 43.6038 25.464 43.9985 25.208C44.3932 24.9413 44.9052 24.808 45.5345 24.808C46.7292 24.808 47.5558 25.304 48.0145 26.296ZM65.1864 21.8C65.709 21.8 66.1784 21.88 66.5944 22.04C67.0104 22.2 67.3624 22.4187 67.6504 22.696C67.9384 22.9733 68.157 23.3093 68.3064 23.704C68.4557 24.088 68.5304 24.504 68.5304 24.952C68.5304 25.5387 68.4024 26.04 68.1464 26.456C67.901 26.872 67.565 27.1867 67.1384 27.4C67.5757 27.6133 67.917 27.9333 68.1624 28.36C68.4077 28.776 68.5304 29.272 68.5304 29.848C68.5304 30.296 68.4557 30.7173 68.3064 31.112C68.157 31.496 67.9384 31.8267 67.6504 32.104C67.3624 32.3813 67.0104 32.6 66.5944 32.76C66.1784 32.92 65.709 33 65.1864 33H60.4184V21.8H65.1864ZM66.2904 25.128C66.2904 24.808 66.189 24.5467 65.9864 24.344C65.7837 24.1413 65.501 24.04 65.1384 24.04H62.6584V26.28H65.1384C65.4797 26.28 65.757 26.1733 65.9704 25.96C66.1837 25.7467 66.2904 25.4693 66.2904 25.128ZM66.2904 29.672C66.2904 29.32 66.1837 29.0427 65.9704 28.84C65.757 28.6267 65.4797 28.52 65.1384 28.52H62.6584V30.76H65.1384C65.501 30.76 65.7837 30.664 65.9864 30.472C66.189 30.2693 66.2904 30.0027 66.2904 29.672ZM72.2256 26.312C72.439 25.8427 72.727 25.4747 73.0896 25.208C73.463 24.9413 73.9323 24.808 74.4976 24.808C74.647 24.808 74.7803 24.8187 74.8976 24.84C75.0256 24.8613 75.1536 24.888 75.2816 24.92V27.192C75.1323 27.1387 74.9776 27.1067 74.8176 27.096C74.6576 27.0747 74.4923 27.064 74.3216 27.064C73.6176 27.064 73.1056 27.2613 72.7856 27.656C72.4656 28.04 72.3056 28.616 72.3056 29.384V33H70.1936V25H72.2256V26.312ZM75.5726 29C75.5726 28.3813 75.6793 27.816 75.8926 27.304C76.1166 26.7813 76.4206 26.3387 76.8046 25.976C77.1886 25.6027 77.642 25.3147 78.1646 25.112C78.6873 24.9093 79.258 24.808 79.8766 24.808C80.4953 24.808 81.066 24.9093 81.5886 25.112C82.1113 25.3147 82.5646 25.6027 82.9486 25.976C83.3326 26.3387 83.6313 26.7813 83.8446 27.304C84.0686 27.816 84.1806 28.3813 84.1806 29C84.1806 29.6293 84.0686 30.2 83.8446 30.712C83.6313 31.224 83.3326 31.6667 82.9486 32.04C82.5646 32.4027 82.1113 32.6853 81.5886 32.888C81.066 33.0907 80.4953 33.192 79.8766 33.192C79.258 33.192 78.6873 33.0907 78.1646 32.888C77.642 32.6853 77.1886 32.4027 76.8046 32.04C76.4206 31.6667 76.1166 31.224 75.8926 30.712C75.6793 30.2 75.5726 29.6293 75.5726 29ZM81.8446 29.88C81.9513 29.6133 82.0046 29.32 82.0046 29C82.0046 28.68 81.9513 28.392 81.8446 28.136C81.738 27.8693 81.5886 27.6453 81.3966 27.464C81.2046 27.272 80.9753 27.128 80.7086 27.032C80.4526 26.9253 80.1753 26.872 79.8766 26.872C79.578 26.872 79.2953 26.9253 79.0286 27.032C78.7726 27.128 78.5486 27.272 78.3566 27.464C78.1646 27.6453 78.0153 27.8693 77.9086 28.136C77.802 28.392 77.7486 28.68 77.7486 29C77.7486 29.32 77.802 29.6133 77.9086 29.88C78.0153 30.136 78.1646 30.36 78.3566 30.552C78.5486 30.7333 78.7726 30.8773 79.0286 30.984C79.2953 31.08 79.578 31.128 79.8766 31.128C80.1753 31.128 80.4526 31.08 80.7086 30.984C80.9753 30.8773 81.2046 30.7333 81.3966 30.552C81.5886 30.36 81.738 30.136 81.8446 29.88ZM90.2414 29.448L88.2574 29.688C87.9267 29.7413 87.676 29.848 87.5054 30.008C87.3454 30.1573 87.2654 30.344 87.2654 30.568C87.2654 30.824 87.3614 31.032 87.5534 31.192C87.7454 31.3413 88.028 31.416 88.4014 31.416C88.6787 31.416 88.9294 31.3733 89.1534 31.288C89.388 31.192 89.5854 31.0693 89.7454 30.92C89.9054 30.7707 90.028 30.6 90.1134 30.408C90.1987 30.2053 90.2414 29.992 90.2414 29.768V29.448ZM85.2814 26.632C85.548 26.024 85.9907 25.5707 86.6094 25.272C87.228 24.9733 87.9747 24.824 88.8494 24.824C90.0227 24.824 90.8974 25.0853 91.4734 25.608C92.06 26.1307 92.3534 26.952 92.3534 28.072V33.016H90.2414V31.928C90.028 32.248 89.7187 32.536 89.3134 32.792C88.9187 33.048 88.4067 33.176 87.7774 33.176C87.3827 33.176 87.02 33.1173 86.6894 33C86.3587 32.872 86.0707 32.7013 85.8254 32.488C85.5907 32.264 85.404 32.0027 85.2654 31.704C85.1374 31.3947 85.0734 31.0533 85.0734 30.68C85.0734 30.3173 85.1374 29.992 85.2654 29.704C85.3934 29.4053 85.5694 29.1493 85.7934 28.936C86.028 28.7227 86.3 28.552 86.6094 28.424C86.9187 28.2853 87.26 28.2 87.6334 28.168L89.8254 27.976C90.1027 27.944 90.2414 27.8373 90.2414 27.656V27.528C90.2414 27.2933 90.1294 27.1013 89.9054 26.952C89.6814 26.8027 89.3294 26.728 88.8494 26.728C88.636 26.728 88.428 26.7493 88.2254 26.792C88.0227 26.824 87.8307 26.8827 87.6494 26.968C87.468 27.0427 87.308 27.144 87.1694 27.272C87.0307 27.4 86.924 27.56 86.8494 27.752L85.2814 26.632ZM97.8759 26.856C97.5772 26.856 97.2999 26.9093 97.0439 27.016C96.7879 27.112 96.5639 27.256 96.3719 27.448C96.1905 27.6293 96.0465 27.8533 95.9399 28.12C95.8332 28.3867 95.7799 28.68 95.7799 29C95.7799 29.32 95.8332 29.6133 95.9399 29.88C96.0465 30.1467 96.1905 30.376 96.3719 30.568C96.5639 30.7493 96.7879 30.8933 97.0439 31C97.2999 31.096 97.5772 31.144 97.8759 31.144C98.4732 31.144 98.9692 30.952 99.3639 30.568C99.7692 30.184 99.9719 29.6613 99.9719 29C99.9719 28.328 99.7692 27.8053 99.3639 27.432C98.9692 27.048 98.4732 26.856 97.8759 26.856ZM102.02 21.8V33H99.9079V31.88C99.6199 32.2853 99.2519 32.6107 98.8039 32.856C98.3559 33.0907 97.8385 33.208 97.2519 33.208C96.7505 33.208 96.2812 33.1173 95.8439 32.936C95.4065 32.744 95.0172 32.472 94.6759 32.12C94.3452 31.7573 94.0839 31.3147 93.8919 30.792C93.6999 30.2693 93.6039 29.672 93.6039 29C93.6039 28.328 93.6999 27.7307 93.8919 27.208C94.0839 26.6853 94.3452 26.248 94.6759 25.896C95.0065 25.5333 95.3905 25.2613 95.8279 25.08C96.2652 24.888 96.7292 24.792 97.2199 24.792C97.8492 24.792 98.3825 24.9253 98.8199 25.192C99.2679 25.448 99.6305 25.768 99.9079 26.152V21.8H102.02ZM106.013 33L102.764 25H105.069L106.861 29.768L108.765 25H110.477L112.397 29.768L114.173 25H116.477L113.229 33H111.628L109.629 28.248L107.613 33H106.013ZM121.757 29.448L119.773 29.688C119.442 29.7413 119.192 29.848 119.021 30.008C118.861 30.1573 118.781 30.344 118.781 30.568C118.781 30.824 118.877 31.032 119.069 31.192C119.261 31.3413 119.544 31.416 119.917 31.416C120.194 31.416 120.445 31.3733 120.669 31.288C120.904 31.192 121.101 31.0693 121.261 30.92C121.421 30.7707 121.544 30.6 121.629 30.408C121.714 30.2053 121.757 29.992 121.757 29.768V29.448ZM116.797 26.632C117.064 26.024 117.506 25.5707 118.125 25.272C118.744 24.9733 119.49 24.824 120.365 24.824C121.538 24.824 122.413 25.0853 122.989 25.608C123.576 26.1307 123.869 26.952 123.869 28.072V33.016H121.757V31.928C121.544 32.248 121.234 32.536 120.829 32.792C120.434 33.048 119.922 33.176 119.293 33.176C118.898 33.176 118.536 33.1173 118.205 33C117.874 32.872 117.586 32.7013 117.341 32.488C117.106 32.264 116.92 32.0027 116.781 31.704C116.653 31.3947 116.589 31.0533 116.589 30.68C116.589 30.3173 116.653 29.992 116.781 29.704C116.909 29.4053 117.085 29.1493 117.309 28.936C117.544 28.7227 117.816 28.552 118.125 28.424C118.434 28.2853 118.776 28.2 119.149 28.168L121.341 27.976C121.618 27.944 121.757 27.8373 121.757 27.656V27.528C121.757 27.2933 121.645 27.1013 121.421 26.952C121.197 26.8027 120.845 26.728 120.365 26.728C120.152 26.728 119.944 26.7493 119.741 26.792C119.538 26.824 119.346 26.8827 119.165 26.968C118.984 27.0427 118.824 27.144 118.685 27.272C118.546 27.4 118.44 27.56 118.365 27.752L116.797 26.632ZM125.658 36.2L127.61 31.848L124.218 25H126.682L128.73 29.384L130.698 25H132.938L127.898 36.2H125.658Z" fill="#2D3039" />
    <path d="M147 32L143.536 26L150.464 26L147 32Z" fill="#2D3039" />
    <path d="M4.48 12V2.24H0.08V0.799999H10.336V2.24H5.92V12H4.48ZM10.5081 10.992C9.70813 10.192 9.30813 9.19467 9.30813 8C9.30813 6.80533 9.70813 5.808 10.5081 5.008C11.3081 4.208 12.3055 3.808 13.5001 3.808C14.6948 3.808 15.6921 4.208 16.4921 5.008C17.2921 5.808 17.6921 6.80533 17.6921 8C17.6921 9.19467 17.2921 10.192 16.4921 10.992C15.6921 11.792 14.6948 12.192 13.5001 12.192C12.3055 12.192 11.3081 11.792 10.5081 10.992ZM15.5001 10.064C16.0121 9.53067 16.2681 8.84267 16.2681 8C16.2681 7.15733 16.0121 6.46933 15.5001 5.936C14.9881 5.40267 14.3215 5.136 13.5001 5.136C12.6788 5.136 12.0121 5.40267 11.5001 5.936C10.9881 6.46933 10.7321 7.15733 10.7321 8C10.7321 8.84267 10.9881 9.53067 11.5001 10.064C12.0121 10.5973 12.6788 10.864 13.5001 10.864C14.3215 10.864 14.9881 10.5973 15.5001 10.064Z" fill="#747780" />
</svg>